<?xml version="1.0" encoding="UTF-8"?>
<svg xmlns="http://www.w3.org/2000/svg" xmlns:xlink="http://www.w3.org/1999/xlink" fill="none" version="1.1" width="406.59093856811523" height="291.1357421875" viewBox="0 0 406.59093856811523 291.1357421875"><defs><linearGradient x1="0.5" y1="0" x2="0.5" y2="1" id="master_svg0_192_03054"><stop offset="0%" stop-color="#575757" stop-opacity="1"/><stop offset="100%" stop-color="#151515" stop-opacity="1"/></linearGradient><linearGradient x1="0.4999750256538391" y1="-0.12466883659362793" x2="0.5000097866898635" y2="0.999999999697515" id="master_svg1_192_02607"><stop offset="0%" stop-color="#E3E3E5" stop-opacity="0.6000000238418579"/><stop offset="100%" stop-color="#BBBBC0" stop-opacity="0.6000000238418579"/></linearGradient><linearGradient x1="0.5" y1="0" x2="0.49998079240052296" y2="0.9554253814612482" id="master_svg2_192_02608"><stop offset="0%" stop-color="#FFFFFF" stop-opacity="1"/><stop offset="100%" stop-color="#FFFFFF" stop-opacity="0"/></linearGradient><linearGradient x1="0.5" y1="0" x2="0.5" y2="1" id="master_svg3_192_03054"><stop offset="0%" stop-color="#575757" stop-opacity="1"/><stop offset="100%" stop-color="#151515" stop-opacity="1"/></linearGradient><linearGradient x1="0.5" y1="0" x2="0.5" y2="1" id="master_svg4_192_03059"><stop offset="0%" stop-color="#E3E3E5" stop-opacity="0.6000000238418579"/><stop offset="100%" stop-color="#BBBBC0" stop-opacity="0.6000000238418579"/></linearGradient><linearGradient x1="0.5" y1="0" x2="0.5" y2="0.5791428685188293" id="master_svg5_185_01229"><stop offset="0%" stop-color="#FFFFFF" stop-opacity="1"/><stop offset="100%" stop-color="#FFFFFF" stop-opacity="0"/></linearGradient><linearGradient x1="0.5" y1="0" x2="0.5" y2="1" id="master_svg6_192_03054"><stop offset="0%" stop-color="#575757" stop-opacity="1"/><stop offset="100%" stop-color="#151515" stop-opacity="1"/></linearGradient><linearGradient x1="0.5" y1="0" x2="0.5" y2="1" id="master_svg7_192_03059"><stop offset="0%" stop-color="#E3E3E5" stop-opacity="0.6000000238418579"/><stop offset="100%" stop-color="#BBBBC0" stop-opacity="0.6000000238418579"/></linearGradient><linearGradient x1="0.5" y1="0" x2="0.5" y2="0.625" id="master_svg8_192_02621"><stop offset="0%" stop-color="#FFFFFF" stop-opacity="1"/><stop offset="100%" stop-color="#FFFFFF" stop-opacity="0"/></linearGradient><linearGradient x1="0.5" y1="0" x2="0.5" y2="1" id="master_svg9_192_03054"><stop offset="0%" stop-color="#575757" stop-opacity="1"/><stop offset="100%" stop-color="#151515" stop-opacity="1"/></linearGradient><linearGradient x1="0.4999750256538391" y1="-0.12466883659362793" x2="0.5000095922229109" y2="0.999999999705184" id="master_svga_192_02607"><stop offset="0%" stop-color="#E3E3E5" stop-opacity="0.6000000238418579"/><stop offset="100%" stop-color="#BBBBC0" stop-opacity="0.6000000238418579"/></linearGradient><linearGradient x1="0.5" y1="0" x2="0.49998089985484745" y2="0.9554253814645108" id="master_svgb_192_02608"><stop offset="0%" stop-color="#FFFFFF" stop-opacity="1"/><stop offset="100%" stop-color="#FFFFFF" stop-opacity="0"/></linearGradient></defs><g><g transform="matrix(0.9942856431007385,0.10675251483917236,-0.10675251483917236,0.9942856431007385,17.164983791710483,-0.44119688948512703)"><path d="M131.70354843139648,219.6123046875Q131.70354843139648,221.0729446875,131.6318784313965,222.5318296875Q131.5602084313965,223.9907146875,131.41703843139646,225.4443286875Q131.2738784313965,226.8979336875,131.05954843139648,228.3427576875Q130.8452284313965,229.7875976875,130.56026843139648,231.2201686875Q130.27530843139647,232.6527406875,129.92040843139648,234.06961068750002Q129.56549843139646,235.4864806875,129.14149843139649,236.8842316875Q128.71749843139648,238.2819826875,128.2254184313965,239.6572416875Q127.73333843139649,241.0325016875,127.17437843139649,242.3819576875Q126.61541843139648,243.7314146875,125.99089843139649,245.0518186875Q125.36640843139648,246.3722306875,124.67785843139649,247.6604076875Q123.98931843139648,248.9485776875,123.23839843139649,250.2014156875Q122.48747843139648,251.45424668750002,121.67597843139649,252.6687236875Q120.86448843139648,253.8832096875,119.99437843139648,255.0564036875Q119.12428843139648,256.2296066875,118.19767843139648,257.3587036875Q117.27104843139648,258.4877926875,116.29013843139649,259.5700606875Q115.30922843139649,260.6523246875,114.27639843139649,261.6851546875Q113.24356843139648,262.71797468750003,112.16131243139648,263.6988846875Q111.07904443139648,264.6797946875,109.94995543139649,265.6064246875Q108.82085843139649,266.5330346875,107.64766343139648,267.4031346875Q106.47446043139648,268.2732346875,105.25997543139648,269.08473468750003Q104.04549743139648,269.89622468749997,102.79265943139649,270.64714468750003Q101.53982943139648,271.3980746875,100.25165943139649,272.0866146875Q98.96348143139649,272.7751646875,97.64307743139648,273.3996546875Q96.32266643139648,274.0241746875,94.97320943139648,274.5831346875Q93.62374543139649,275.1420946875,92.24849343139648,275.63417468750004Q90.87322643139649,276.1262446875,89.47548343139648,276.5502446875Q88.07773943139648,276.9742446875,86.66086943139648,277.3291546875Q85.24399943139649,277.6840546875,83.81142043139648,277.9690146875Q82.37884143139648,278.2539746875,80.93400943139649,278.4683046875Q79.48917743139648,278.6826246875,78.03557243139649,278.8257946875Q76.58195843139649,278.96896468750003,75.12307343139648,279.0406346875Q73.66418843139648,279.1123046875,72.20354843139648,279.1123046875Q70.74290843139649,279.1123046875,69.28402343139649,279.0406346875Q67.82514143139647,278.96896468750003,66.37153243139647,278.8257946875Q64.91791943139648,278.6826346875,63.473087431396486,278.4683046875Q62.02824743139649,278.2539846875,60.59567243139649,277.9690246875Q59.16309743139649,277.6840646875,57.746227431396484,277.3291646875Q56.32935743139648,276.9742546875,54.931610431396486,276.5502546875Q53.53386343139648,276.1262546875,52.15859943139648,275.63417468750004Q50.783336431396485,275.1420946875,49.433879431396484,274.5831346875Q48.08442343139649,274.0241746875,46.76401543139649,273.3996546875Q45.443611431396484,272.7751646875,44.15544143139648,272.0866146875Q42.867267431396485,271.3980746875,41.61443143139648,270.6471546875Q40.36159543139648,269.8962346875,39.147115431396486,269.08473468750003Q37.93263643139649,268.2732446875,36.759437431396485,267.4031346875Q35.58623843139648,266.5330446875,34.457145431396484,265.6064346875Q33.328052431396486,264.6798046875,32.245788431396484,263.6988946875Q31.163524431396485,262.7179846875,30.130693431396484,261.6851546875Q29.097862431396486,260.6523246875,28.116954431396486,259.5700686875Q27.136047431396484,258.4878006875,26.209425431396483,257.3587116875Q25.282803431396484,256.2296146875,24.412699431396483,255.0564196875Q23.542594431396484,253.8832166875,22.731104431396485,252.66873168749999Q21.919614831396487,251.4542536875,21.168694531396483,250.2014156875Q20.417774231396486,248.94858568749999,19.729232331396485,247.6604156875Q19.040689931396486,246.3722376875,18.416184931396486,245.0518336875Q17.791679431396485,243.73142268750001,17.232715631396484,242.38196568749999Q16.673751831396483,241.0325016875,16.181676131396486,239.65724968749998Q15.689600231396485,238.2819826875,15.265598031396484,236.88423968749998Q14.841595931396483,235.4864956875,14.486688631396484,234.06962568749998Q14.131781331396484,232.65275568750002,13.846824031396483,231.2201766875Q13.561866761396484,229.7875976875,13.347545981396484,228.3427656875Q13.133225201396485,226.8979336875,12.990057171396485,225.4443286875Q12.846889121396485,223.9907146875,12.775218777396484,222.5318296875Q12.703548431396484,221.0729446875,12.703548431396484,219.6123046875Q12.703548431396484,218.1516646875,12.775218777396484,216.6927796875Q12.846889121396485,215.2338976875,12.990057171396485,213.7802886875Q13.133225201396485,212.3266756875,13.347545981396484,210.8818436875Q13.561866761396484,209.4370036875,13.846824031396483,208.0044286875Q14.131781331396484,206.5718536875,14.486688631396484,205.1549836875Q14.841595931396483,203.7381136875,15.265598031396484,202.3403666875Q15.689600231396485,200.94261968749998,16.181675931396484,199.5673556875Q16.673751831396483,198.1920926875,17.232715631396484,196.8426356875Q17.791679431396485,195.4931796875,18.416184931396486,194.17277168750002Q19.040690431396484,192.8523676875,19.729232831396484,191.56419768749998Q20.417774231396486,190.27602368750001,21.168695431396486,189.0231876875Q21.919614831396487,187.7703516875,22.731105431396486,186.5558716875Q23.542594431396484,185.3413926875,24.412698431396485,184.1681936875Q25.282804431396485,182.9949946875,26.209426431396484,181.8659016875Q27.136047431396484,180.7368086875,28.116954431396486,179.6545446875Q29.097862431396486,178.5722806875,30.130693431396484,177.5394496875Q31.163524431396485,176.5066186875,32.245788431396484,175.5257106875Q33.32805443139648,174.5448036875,34.457147431396486,173.6181816875Q35.58623843139648,172.6915596875,36.759437431396485,171.8214556875Q37.932638431396484,170.9513506875,39.14711743139648,170.1398606875Q40.361599431396485,169.3283710875,41.614433431396485,168.5774507875Q42.867267431396485,167.8265304875,44.15544143139648,167.1379885875Q45.443611431396484,166.4494461875,46.764019431396484,165.8249411875Q48.08442343139649,165.2004356875,49.433879431396484,164.6414718875Q50.783336431396485,164.0825080875,52.15859943139648,163.5904323875Q53.533859431396486,163.0983564875,54.93160643139648,162.6743542875Q56.32935743139648,162.2503521875,57.746227431396484,161.8954448875Q59.16309743139649,161.5405375875,60.59567243139649,161.2555802875Q62.02824743139649,160.9706230175,63.47308343139648,160.7563022375Q64.91791943139648,160.5419814575,66.37152843139648,160.3988134275Q67.82513843139648,160.2556453775,69.28402343139649,160.1839750335Q70.74290843139649,160.1123046875,72.20354843139648,160.1123046875Q73.66418843139648,160.1123046875,75.12307343139648,160.1839750335Q76.58195843139649,160.2556453775,78.03557243139649,160.3988134275Q79.48917743139648,160.5419814575,80.93400143139648,160.7563022375Q82.37884143139648,160.9706230175,83.81141243139649,161.2555802875Q85.24398443139648,161.5405375875,86.66085443139649,161.8954448875Q88.07772443139649,162.2503521875,89.47547543139649,162.6743542875Q90.87322643139649,163.0983564875,92.24848543139649,163.5904321875Q93.62374543139649,164.0825080875,94.97320143139649,164.6414718875Q96.32265843139649,165.2004356875,97.64306243139649,165.8249411875Q98.96347443139648,166.4494466875,100.25165143139648,167.1379890875Q101.53982143139649,167.8265304875,102.79265943139649,168.5774516875Q104.04549043139649,169.3283710875,105.25996743139649,170.1398616875Q106.47445343139648,170.9513506875,107.64764743139648,171.8214546875Q108.82085043139648,172.6915606875,109.94994743139648,173.6181826875Q111.07903643139649,174.5448036875,112.16130443139649,175.5257106875Q113.24356843139648,176.5066186875,114.27639843139649,177.5394496875Q115.30921843139649,178.5722806875,116.29012843139648,179.6545446875Q117.27103843139649,180.7368106875,118.19766843139648,181.8659036875Q119.12427843139649,182.9949946875,119.99437843139648,184.1681936875Q120.86447843139648,185.34139468749999,121.67597843139649,186.5558736875Q122.48746843139648,187.7703556875,123.23838843139649,189.0231896875Q123.98931843139648,190.27602368750001,124.67785843139649,191.56419768749998Q125.36640843139648,192.8523676875,125.99089843139649,194.1727756875Q126.61541843139648,195.4931796875,127.17437843139649,196.8426356875Q127.73333843139649,198.1920926875,128.2254184313965,199.5673556875Q128.71748843139648,200.9426156875,129.14148843139648,202.3403626875Q129.5654884313965,203.7381136875,129.92039843139648,205.1549836875Q130.2752984313965,206.5718536875,130.5602584313965,208.0044286875Q130.8452184313965,209.4370036875,131.05954843139648,210.8818396875Q131.27386843139647,212.3266756875,131.41703843139646,213.7802846875Q131.5602084313965,215.2338946875,131.6318784313965,216.6927796875Q131.70354843139648,218.1516646875,131.70354843139648,219.6123046875Z" fill="url(#master_svg0_192_03054)" fill-opacity="1" style="mix-blend-mode:passthrough"/></g><g transform="matrix(0.9942856431007385,0.10675251483917236,-0.10675251483917236,0.9942856431007385,11.424671386052296,-6.460046181905909)"><g><path d="M135.53596108764648,119.550394C129.90476208764647,110.5438027,127.08854708764648,106.040313,123.48378408764648,104.4959641C120.33525508764649,103.14717665,116.77178908764648,103.14717665,113.62325308764648,104.4959641C110.01786808764649,106.0403788,107.20227008764648,110.5438027,101.57108308764649,119.55102L75.12113668764648,161.855145C68.87093998764648,171.852188,65.74581053764649,176.850082,66.07756126664648,180.975266C66.36669203764649,184.57058,68.19404558764649,187.86623400000002,71.09087418764648,190.01702899999998C74.41420078764648,192.484375,80.31061708764648,192.484375,92.10357708764649,192.484375L118.55352408764648,192.484375L145.00346708764647,192.484375C156.7965510876465,192.484375,162.6930880876465,192.484375,166.01623108764647,190.01702899999998C168.91318608764647,187.86623400000002,170.74059608764648,184.57058,171.02972608764648,180.975266C171.3614160876465,176.850082,168.23602608764648,171.852188,161.98590508764647,161.855145L135.53596108764648,119.550394Z" fill="url(#master_svg1_192_02607)" fill-opacity="1" style="mix-blend-mode:passthrough"/></g><g><path d="M113.62012221542358,104.5005252097439C116.76865121542357,103.1517377997439,120.33586621542358,103.1518004497439,123.48440321542358,104.5005252097439C127.08791121542359,106.0458763097439,129.90600721542359,110.5490490097439,135.5359552154236,119.5538320097439L161.98715021542358,161.8548400097439C165.1475802154236,166.9096530097439,167.50819121542358,170.68700100974388,169.0276922154236,173.7192880097439L163.70441921542357,173.7192880097439C162.33322621542357,171.2750670097439,160.4632542154236,168.2684600097439,158.00877121542356,164.3415800097439L131.55757621542358,122.0405810097439C128.6937842154236,117.4605800097439,126.70991621542359,114.2973140097439,125.01204821542359,112.06393490974389C123.31355021542359,109.8294893097439,122.30785121542358,109.0972267097439,121.63258121542358,108.8076354097439C119.66560521542358,107.9661442097439,117.43829121542359,107.9655181097439,115.47194421542358,108.8076354097439C114.79667821542358,109.0970360097439,113.79222221542358,109.8276101097439,112.09184821542358,112.06393490974389C110.39461321542359,114.2973790097439,108.41637221542359,117.4599570097439,105.55258321542358,122.0405810097439L79.10176221542358,164.3415800097439C76.64714381542359,168.26782700974388,74.77723601542358,171.2750670097439,73.40573601542359,173.7192880097439L68.08871221542358,173.7192880097439C68.85597652542359,172.1878170097439,69.83095121542358,170.4636730097439,71.02227571542359,168.4836620097439L75.12313221542358,161.8548400097439L101.56794521542358,119.5538320097439C106.84617021542358,111.1119629097439,109.65425221542358,106.6254292097439,112.95361421542358,104.8243355097439L113.62012221542358,104.5005252097439Z" fill="url(#master_svg2_192_02608)" fill-opacity="1" style="mix-blend-mode:passthrough"/></g></g><g transform="matrix(0.9942856431007385,0.10675251483917236,-0.10675251483917236,0.9942856431007385,9.525511460864664,-14.131510755639738)"><path d="M136.76089096069336,113.10917868749999C136.76089096069336,102.18820368749999,136.76089096069336,96.7276676875,138.88624356069337,92.5563756875C140.75580666069337,88.8872046875,143.73891596069336,85.9040953875,147.40808696069337,84.0345322875C151.57937896069336,81.9091796875,157.03991496069335,81.9091796875,167.96088996069335,81.9091796875L183.56088996069337,81.9091796875C194.48186496069337,81.9091796875,199.94235596069336,81.9091796875,204.11388796069338,84.0345322875C207.78281796069336,85.9040953875,210.76582696069335,88.8872046875,212.63538696069335,92.5563756875C214.76089096069336,96.7276676875,214.76089096069336,102.18820368749999,214.76089096069336,113.10917868749999L214.76089096069336,128.7091786875C214.76089096069336,139.6301536875,214.76089096069336,145.0906446875,212.63538696069335,149.26217668750002C210.76582696069335,152.9311066875,207.78281796069336,155.9141156875,204.11388796069338,157.7836756875C199.94235596069336,159.9091796875,194.48186496069337,159.9091796875,183.56088996069337,159.9091796875L167.96088996069335,159.9091796875C157.03991496069335,159.9091796875,151.57937896069336,159.9091796875,147.40808696069337,157.7836756875C143.73891596069336,155.9141156875,140.75580666069337,152.9311066875,138.88624356069337,149.26217668750002C136.76089096069336,145.0906446875,136.76089096069336,139.6301536875,136.76089096069336,128.7091786875L136.76089096069336,113.10917868749999Z" fill="url(#master_svg3_192_03054)" fill-opacity="1" style="mix-blend-mode:passthrough"/></g><g transform="matrix(0.9942856431007385,0.10675251483917236,-0.10675251483917236,0.9942856431007385,6.069652768485184,-20.213856184803717)" style="opacity:0.75;"><g><path d="M264.84630966186523,83.087890625Q264.84630966186523,83.983913625,264.80234866186527,84.878860625Q264.7583806618652,85.773803625,264.67055866186524,86.665515625Q264.58272966186524,87.557224625,264.45125166186523,88.443549625Q264.31977466186527,89.329875625,264.14497766186525,90.208682625Q263.97017266186526,91.08749362500001,263.75246066186526,91.956664625Q263.5347406618652,92.825836625,263.27463866186525,93.68328062500001Q263.01453766186523,94.540721625,262.7126736618652,95.38436862500001Q262.41080866186525,96.228011625,262.06791266186525,97.055831625Q261.72501766186525,97.883651625,261.34191466186525,98.693649625Q260.9588206618652,99.503646625,260.53644166186524,100.293868625Q260.1140556618652,101.084091625,259.65340766186523,101.852638625Q259.19276066186524,102.62118162499999,258.6949496618652,103.36619962500001Q258.1971396618652,104.111213625,257.66337966186524,104.830909625Q257.12961966186526,105.550605625,256.5611996618652,106.243244625Q255.99276366186524,106.935878625,255.39102566186523,107.599788625Q254.78929166186524,108.263698625,254.15570466186523,108.897285625Q253.52211766186525,109.530872625,252.85820766186524,110.132606625Q252.19429766186522,110.734344625,251.50166366186522,111.302780625Q250.80902466186524,111.871200625,250.08932866186524,112.404960625Q249.36963266186524,112.938720625,248.62461866186524,113.436530625Q247.87960066186523,113.934341625,247.11105766186523,114.394988625Q246.34251066186522,114.855636625,245.55228766186525,115.278022625Q244.76206566186522,115.700401625,243.95206866186524,116.083495625Q243.14207066186523,116.466598625,242.31425066186523,116.809493625Q241.48643066186523,117.152389625,240.64278766186524,117.454254625Q239.79914066186524,117.756118625,238.94169966186524,118.016219625Q238.08425566186523,118.276321625,237.21508366186524,118.494033625Q236.34591266186524,118.711746625,235.46710166186523,118.886550625Q234.58829466186523,119.061355625,233.70196866186524,119.192825625Q232.81564366186524,119.324302625,231.92393466186525,119.412132625Q231.03222266186523,119.499954625,230.13727966186525,119.543929625Q229.24233266186525,119.587890625,228.34630966186523,119.587890625Q227.45028266186523,119.587890625,226.55533966186522,119.543929625Q225.66039666186524,119.499961625,224.76868466186522,119.412139625Q223.87697266186524,119.324310625,222.99064466186525,119.192832625Q222.10431866186525,119.061355625,221.22551166186523,118.886558625Q220.34670266186524,118.711753625,219.47753166186524,118.494041625Q218.60836066186522,118.276321625,217.75091766186523,118.016219625Q216.89347466186524,117.756118625,216.04982766186524,117.454254625Q215.20618066186523,117.152389625,214.37836266186522,116.809493625Q213.55054466186525,116.466598625,212.74054766186524,116.083495625Q211.93054966186523,115.700401625,211.14032766186523,115.278022625Q210.35010566186523,114.855636625,209.58155866186524,114.394988625Q208.81301166186523,113.934341625,208.06799466186524,113.436530625Q207.32297666186523,112.938720625,206.60328366186525,112.404960625Q205.88359066186524,111.871200625,205.19095566186525,111.302780625Q204.49831766186523,110.734344625,203.83440666186524,110.132606625Q203.17049566186523,109.530872625,202.53691166186525,108.897285625Q201.90332566186524,108.263698625,201.30159286186523,107.599788625Q200.69985966186525,106.935878625,200.13142776186524,106.243244625Q199.56299546186523,105.550605625,199.02923436186524,104.830909625Q198.49547286186524,104.111213625,197.99766876186524,103.36619962500001Q197.49986406186522,102.62118162499999,197.03921556186523,101.852638625Q196.57856656186524,101.084091625,196.15618376186524,100.293868625Q195.73380036186524,99.503646625,195.35070036186522,98.693649625Q194.96760036186524,97.883651625,194.62470646186523,97.055831625Q194.28181266186525,96.228011625,193.97995116186524,95.38436862500001Q193.67808966186524,94.540721625,193.41798746186524,93.68328062500001Q193.15788516186524,92.825836625,192.94016896186523,91.956664625Q192.72245264186523,91.08749362500001,192.54764688186523,90.208682625Q192.37284118186523,89.329875625,192.24136704186523,88.443549625Q192.10989293186523,87.557224625,192.02206714186522,86.665515625Q191.93424136186525,85.773803625,191.89027551186524,84.878860625Q191.84630966186523,83.983913625,191.84630966186523,83.087890625Q191.84630966186523,82.191863625,191.89027551186524,81.296920625Q191.93424136186525,80.401977625,192.02206714186522,79.510265625Q192.10989293186523,78.618553625,192.24136704186523,77.732225625Q192.37284118186523,76.845899625,192.54764688186523,75.96709262499999Q192.72245264186523,75.088283625,192.94016886186523,74.21911262500001Q193.15788506186524,73.349941625,193.41798736186524,72.492498625Q193.67808966186524,71.635055625,193.97995116186524,70.791408625Q194.28181266186525,69.947761625,194.62470646186523,69.119943625Q194.96760036186524,68.292125625,195.35070036186522,67.482128625Q195.73380036186524,66.672130625,196.15618376186524,65.881908625Q196.57856656186524,65.091686625,197.03921506186524,64.323139625Q197.49986366186522,63.554592625,197.99766826186524,62.809575625Q198.49547286186524,62.064557625,199.02923396186523,61.344864625Q199.56299546186523,60.625171625,200.13142776186524,59.932536625Q200.69985966186525,59.239898625,201.30159286186523,58.575987624999996Q201.90332566186524,57.912076625,202.53691166186525,57.278492625Q203.17049566186523,56.644906625000004,203.83440666186524,56.043173825Q204.49831766186523,55.441440625,205.19095566186525,54.873008725Q205.88359066186524,54.304576425,206.60328366186525,53.770815325Q207.32297666186523,53.237053825000004,208.06799466186524,52.739249725Q208.81301166186523,52.241445025,209.58155866186524,51.780796525Q210.35010566186523,51.320147525,211.14032766186523,50.897764725Q211.93054966186523,50.475381325,212.74054766186524,50.092281325Q213.55054466186525,49.709181325,214.37836266186522,49.366287425Q215.20618066186523,49.023393625,216.04982766186524,48.721532125Q216.89347466186524,48.419670625,217.75091566186524,48.159568425Q218.60835666186523,47.899466125000004,219.47752966186522,47.681749925Q220.34670266186524,47.464033605,221.22550966186523,47.289227845Q222.10431666186523,47.114422145,222.99064666186524,46.982948005Q223.87697266186524,46.851473895,224.76868466186522,46.763648105Q225.66039666186524,46.675822325,226.55533966186522,46.631856475Q227.45028266186523,46.587890625,228.34630966186523,46.587890625Q229.24233266186525,46.587890625,230.13727966186525,46.631856475Q231.03222266186523,46.675822325,231.92393466186525,46.763648105Q232.81564366186524,46.851473895,233.70196866186524,46.982948005Q234.58829466186523,47.114422145,235.46710166186523,47.289227845Q236.34591266186524,47.464033605,237.21508366186524,47.681749825Q238.08425566186523,47.899466025,238.94169966186524,48.159568325Q239.79914066186524,48.419670625,240.64278766186524,48.721532125Q241.48643066186523,49.023393625,242.31425066186523,49.366287425Q243.14207066186523,49.709181325,243.95206866186524,50.092281325Q244.76206566186522,50.475381325,245.55228766186525,50.897764725Q246.34251066186522,51.320147525,247.11105766186523,51.780796025Q247.87960066186523,52.241444625,248.62461866186524,52.739249225Q249.36963266186524,53.237053825000004,250.08932866186524,53.770814924999996Q250.80902466186524,54.304576425,251.50166366186522,54.873008725Q252.19429766186522,55.441440625,252.85820766186524,56.043173825Q253.52211766186525,56.644906625000004,254.15570466186523,57.278492625Q254.78929166186524,57.912076625,255.39102566186523,58.575987624999996Q255.99276366186524,59.239898625,256.5611996618652,59.932536625Q257.12961966186526,60.625171625,257.66337966186524,61.344864625Q258.1971396618652,62.064557625,258.6949496618652,62.809575625Q259.19276066186524,63.554592625,259.65340766186523,64.323139625Q260.1140556618652,65.091686625,260.53644166186524,65.881908625Q260.9588206618652,66.672130625,261.34191466186525,67.482128625Q261.72501766186525,68.292125625,262.06791266186525,69.119943625Q262.41080866186525,69.947761625,262.7126736618652,70.791408625Q263.01453766186523,71.635055625,263.27463866186525,72.492496625Q263.5347406618652,73.349937625,263.7524526618652,74.219110625Q263.9701656618652,75.088283625,264.1449696618652,75.967090625Q264.31977466186527,76.84589762499999,264.45124466186525,77.73222762500001Q264.5827216618652,78.618553625,264.67055166186526,79.510265625Q264.7583736618652,80.401977625,264.80234866186527,81.296920625Q264.84630966186523,82.191863625,264.84630966186523,83.087890625Z" fill="url(#master_svg4_192_03059)" fill-opacity="1" style="mix-blend-mode:passthrough"/></g><g><path d="M228.34630966186523,46.587890625C248.50473766186525,46.587890625,264.84630966186523,62.929460625000004,264.84630966186523,83.087890625C264.84630966186523,103.246318625,248.50473766186525,119.587890625,228.34630966186523,119.587890625C208.18787966186522,119.587890625,191.84630966186523,103.246318625,191.84630966186523,83.087890625C191.84630966186523,62.929460625000004,208.18787966186522,46.587890625,228.34630966186523,46.587890625ZM228.34630966186523,50.498605025C210.34763566186524,50.498605025,195.75702406186522,65.089216625,195.75702406186522,83.087890625C195.75702406186522,101.086559625,210.34763566186524,115.677177625,228.34630966186523,115.677177625C246.34497866186524,115.677177625,260.93559666186525,101.086559625,260.93559666186525,83.087890625C260.93559666186525,65.089216625,246.34497866186524,50.498605025,228.34630966186523,50.498605025Z" fill="url(#master_svg5_185_01229)" fill-opacity="1" style="mix-blend-mode:passthrough"/></g></g><g transform="matrix(0.9942856431007385,0.10675251483917236,-0.10675251483917236,0.9942856431007385,3.75439749808379,-26.653091535510157)" style="opacity:0.75;"><path d="M278.47162650952146,22.33290488C280.3003385095215,21.54545242,282.3710935095215,21.54511325,284.1996155095215,22.33290488C286.2936855095215,23.23513,287.9301415095215,25.8665037,291.20104250952147,31.1281843L306.5671005095215,55.8473355C310.19737650952146,61.6871985,312.01422150952146,64.6078645,311.8217735095215,67.01729950000001C311.6540485095215,69.1182555,310.5885735095215,71.0437505,308.9055325095215,72.3001175C306.9752575095215,73.7412035,303.5509985095215,73.7421875,296.7019765095215,73.7421875L265.96946550952146,73.7421875C259.1186047095215,73.7421875,255.6914287095215,73.74169950000001,253.7608187095215,72.3001175C252.0786915095215,71.0437505,251.0174113495215,69.1177675,250.8494748415215,67.01729950000001C250.65704409952147,64.60737950000001,252.4734715095215,61.6876905,256.1040959095215,55.8473355L271.47025150952146,31.1281843C274.7408025095215,25.866991,276.3777065095215,23.2350777,278.47162650952146,22.33290488Z" fill="url(#master_svg6_192_03054)" fill-opacity="1" style="mix-blend-mode:passthrough"/></g><g transform="matrix(0.9942856431007385,0.10675251483917236,-0.10675251483917236,0.9942856431007385,3.767114248363441,-31.416065229786454)" style="opacity:0.75;"><g><path d="M295.3314781188965,37.0794921875C295.3314781188965,30.9189411875,295.3314781188965,27.838640187499998,296.5303951188965,25.4856028875C297.5850208188965,23.4158143875,299.2678003188965,21.7330348875,301.3375888188965,20.6784091875C303.6906261188965,19.4794921875,306.7709271188965,19.4794921875,312.9314781188965,19.4794921875L321.73147811889646,19.4794921875C327.8920331188965,19.4794921875,330.9723091188965,19.4794921875,333.3254811188965,20.6784091875C335.3951261188965,21.7330348875,337.0778541188965,23.4158143875,338.13248111889646,25.4856028875C339.3314821188965,27.838640187499998,339.3314821188965,30.9189411875,339.3314821188965,37.0794921875L339.3314821188965,45.8794921875C339.3314821188965,52.0400471875,339.3314821188965,55.1203231875,338.13248111889646,57.4734951875C337.0778541188965,59.5431401875,335.3951261188965,61.2258681875,333.3254811188965,62.2804951875C330.9723091188965,63.4794961875,327.8920331188965,63.4794961875,321.73147811889646,63.4794961875L312.9314781188965,63.4794961875C306.7709271188965,63.4794961875,303.6906261188965,63.4794961875,301.3375888188965,62.2804951875C299.2678003188965,61.2258681875,297.5850208188965,59.5431401875,296.5303951188965,57.4734951875C295.3314781188965,55.1203231875,295.3314781188965,52.0400471875,295.3314781188965,45.8794921875L295.3314781188965,37.0794921875Z" fill="url(#master_svg7_192_03059)" fill-opacity="1" style="mix-blend-mode:passthrough"/></g><g><path d="M321.7303771188965,61.4169961875L321.7303771188965,63.4794961875L312.93257911889646,63.4794961875L312.93257911889646,61.4169961875L321.7303771188965,61.4169961875ZM337.2689821188965,45.8783911875L337.2689821188965,37.0805931875C337.2689821188965,33.9664921875,337.2681581188965,31.7535661875,337.1265301188965,30.0229921875C336.9871021188965,28.3162316875,336.7206311188965,27.2589397875,336.2941051188965,26.4216203875C335.4372061188965,24.7403530875,334.07072811889645,23.3736297875,332.3893771188965,22.516839287499998C331.5520061188965,22.0902320875,330.4946331188965,21.8237845875,328.7879791188965,21.6843328875C327.0574031188965,21.5429546875,324.8444821188965,21.5419921875,321.7303771188965,21.5419921875L312.93257911889646,21.5419921875C309.8184781188965,21.5419921875,307.60555211889647,21.5429546875,305.8749781188965,21.6843328875C304.1682176188965,21.8237845875,303.1109257188965,22.0902320875,302.2736063188965,22.516839287499998C300.5923390188965,23.3736297875,299.2256157188965,24.7403530875,298.36882521889646,26.4216203875C297.9422180188965,27.2589397875,297.67577051889646,28.3162316875,297.53631881889646,30.0229921875C297.3949406188965,31.7535661875,297.3939781188965,33.9664921875,297.3939781188965,37.0805931875L297.3939781188965,45.8783911875C297.3939781188965,48.992496187499995,297.3949406188965,51.205417187500004,297.53631881889646,52.9359931875C297.67577051889646,54.6426471875,297.9422180188965,55.7000201875,298.36882521889646,56.5373911875C299.2256157188965,58.2187421875,300.5923390188965,59.5852201875,302.2736063188965,60.4421191875C303.1109257188965,60.8686451875,304.1682176188965,61.1351161875,305.8749781188965,61.2745441875C307.60555211889647,61.4161721875,309.8184781188965,61.4169961875,312.93257911889646,61.4169961875L312.93257911889646,63.4794961875L308.8504801188965,63.4607961875C305.5733041188965,63.4090961875,303.4738989188965,63.2157711875,301.7875438188965,62.4911461875L301.3363504188965,62.2818721875C299.5255575188965,61.3589701875,298.0103359188965,59.9548191875,296.9535380188965,58.2319451875L296.52924121889646,57.4745941875C295.33029532419647,55.1216921875,295.3314781188965,52.0389441875,295.3314781188965,45.8783911875L295.3314781188965,37.0805931875C295.3314781188965,30.9200431875,295.33029532419647,27.8374023875,296.52924121889646,25.4843644875C297.5837829188965,23.4149894875,299.2669754188965,21.7317969875,301.3363504188965,20.6772552875C303.1009149188965,19.7781701375,305.27575401889646,19.5545117925,308.8504801188965,19.4983028195L312.93257911889646,19.4794921875L321.7303771188965,19.4794921875C327.8909301188965,19.4794921875,330.9736781188965,19.4783093928,333.32658011889646,20.6772552875C335.3959501188965,21.7317969875,337.0792271188965,23.4149894875,338.13385811889646,25.4843644875C339.3325841188965,27.8374023875,339.3314821188965,30.9200431875,339.3314821188965,37.0805931875L339.3314821188965,45.8783911875C339.3314821188965,52.0389441875,339.3325841188965,55.1216921875,338.13385811889646,57.4745941875L337.7095301188965,58.2319451875C336.6527061188965,59.9548191875,335.1374511188965,61.3589701875,333.32658011889646,62.2818721875L332.8753051188965,62.4911461875C330.5754811188965,63.4792171875,327.5062031188965,63.4794961875,321.7303771188965,63.4794961875L321.7303771188965,61.4169961875C324.8444821188965,61.4169961875,327.0574031188965,61.4161721875,328.7879791188965,61.2745441875C330.4946331188965,61.1351161875,331.5520061188965,60.8686451875,332.3893771188965,60.4421191875C334.07072811889645,59.5852201875,335.4372061188965,58.2187421875,336.2941051188965,56.5373911875C336.7206311188965,55.7000201875,336.9871021188965,54.6426471875,337.1265301188965,52.9359931875C337.2681581188965,51.205417187500004,337.2689821188965,48.992496187499995,337.2689821188965,45.8783911875Z" fill="url(#master_svg8_192_02621)" fill-opacity="1" style="mix-blend-mode:passthrough"/></g></g><g transform="matrix(0.9942856431007385,0.10675251483917236,-0.10675251483917236,0.9942856431007385,2.6421616944792277,-35.171882037458545)" style="opacity:0.5;"><path d="M373.85094833374023,29.09375Q373.85094833374023,29.63382,373.82444733374024,30.173237Q373.79794733374024,30.712658,373.74501433374024,31.250126Q373.6920733337402,31.787594,373.61283133374025,32.321819000000005Q373.53358033374025,32.856041000000005,373.42821933374023,33.385735Q373.3228573337402,33.915428,373.19163533374024,34.439312Q373.0604093337402,34.963195999999996,372.9036373337402,35.480008999999995Q372.74686033374024,35.996822,372.56491433374026,36.505322Q372.3829693337402,37.013821,372.1762923337402,37.512778999999995Q371.96961633374025,38.011738,371.73870833374025,38.499954Q371.50780133374025,38.988174,371.25321533374023,39.464474Q370.9986263337402,39.940773,370.72097433374023,40.404003Q370.44332533374023,40.867233,370.14327633374023,41.316288Q369.84322733374023,41.765339,369.52151133374025,42.199127Q369.19978733374023,42.632915,368.8571743337402,43.050396Q368.51455733374024,43.467873,368.15186733374026,43.868038Q367.7891803337402,44.268204,367.40729533374025,44.650093Q367.02540933374024,45.031982,366.62524033374024,45.394669Q366.2250783337402,45.757359,365.80759833374026,46.099976Q365.39011733374025,46.442589,364.9563253337402,46.764309Q364.52254133374026,47.086029,364.0734903337402,47.386078Q363.6244393337402,47.686127,363.1612053337402,47.963776Q362.6979713337402,48.241425,362.2216763337402,48.496014Q361.74537633374024,48.750599,361.2571563337402,48.981506Q360.76894033374026,49.212418,360.26997933374025,49.419094Q359.77102133374024,49.625771,359.2625213337402,49.807716Q358.75402233374024,49.989662,358.2372093337402,50.146435Q357.7203943337402,50.303207,357.1965103337402,50.434437Q356.67262633374025,50.565659,356.14293333374025,50.671021Q355.61323933374024,50.776382,355.07901733374024,50.855633Q354.54479233374025,50.934875,354.00732433374026,50.987816Q353.4698563337402,51.040749,352.93043733374026,51.067253Q352.39101833374025,51.09375,351.85094833374023,51.09375Q351.3108783337402,51.09375,350.7714573337402,51.067249Q350.2320383337402,51.040749,349.6945703337402,50.987816Q349.15710033374023,50.934875,348.62287733374023,50.855633Q348.08865333374024,50.776382,347.55896033374023,50.671021Q347.0292683337402,50.565659,346.5053843337402,50.434437Q345.9814983337402,50.303211,345.46468533374025,50.146439Q344.94787033374024,49.989662,344.4393703337402,49.807716Q343.93087133374024,49.625771,343.43191133374023,49.419094Q342.9329523337402,49.212418,342.44473533374025,48.98151Q341.95651833374023,48.750603,341.48022033374025,48.496017Q341.0039203337402,48.241428,340.5406873337402,47.963776Q340.0774533337402,47.686127,339.62840273374024,47.386078Q339.1793508337402,47.086029,338.7455625337402,46.764313Q338.31177523374026,46.442589,337.89429573374025,46.099976Q337.47681573374024,45.757359,337.07665063374026,45.394669Q336.6764850337402,45.031982,336.2945985337402,44.650097Q335.91271163374023,44.268211,335.5500230337402,43.868042Q335.1873345337402,43.46788,334.84471793374024,43.0504Q334.5021009337402,42.632919,334.18038173374026,42.199127Q333.8586626337402,41.765343,333.55861613374026,41.316292Q333.2585697337402,40.867241,332.9809184337402,40.404007Q332.7032671337402,39.940773,332.44868013374025,39.464478Q332.1940930337402,38.988178000000005,331.96318343374026,38.499958Q331.73227383374024,38.011742,331.5255983337402,37.512781000000004Q331.31892253374025,37.013823,331.1369786337402,36.505323000000004Q330.95503473374026,35.996824000000004,330.7982608037402,35.480011000000005Q330.64148688374024,34.963195999999996,330.51026064374025,34.439312Q330.3790344037402,33.915428,330.2736720737402,33.385735Q330.16830971374026,32.856041000000005,330.08906506374024,32.321819000000005Q330.0098204037402,31.787594,329.9568843337402,31.250126Q329.90394825074026,30.712658,329.8774482927402,30.173239Q329.85094833374023,29.63382,329.85094833374023,29.09375Q329.85094833374023,28.55368,329.8774482927402,28.014259Q329.90394825074026,27.47484,329.9568843337402,26.937372Q330.0098204037402,26.399902,330.08906506374024,25.865679Q330.16830971374026,25.331455,330.2736720737402,24.801762Q330.3790344037402,24.27207,330.51026064374025,23.748186Q330.64148688374024,23.2243,330.7982608037402,22.707487Q330.95503473374026,22.190672,331.1369786337402,21.682172Q331.31892253374025,21.173673,331.5255983337402,20.674713Q331.73227383374024,20.175753999999998,331.96318343374026,19.687537Q332.1940930337402,19.19932,332.44868013374025,18.723022Q332.7032671337402,18.246722,332.9809184337402,17.783489Q333.2585697337402,17.320255,333.55861613374026,16.8712044Q333.8586626337402,16.4221525,334.18038173374026,15.9883642Q334.5021009337402,15.5545769,334.84471793374024,15.1370974Q335.1873345337402,14.7196174,335.5500230337402,14.3194523Q335.91271163374023,13.9192867,336.2945985337402,13.5374002Q336.6764850337402,13.155513299999999,337.07665063374026,12.7928247Q337.47681573374024,12.4301362,337.89429573374025,12.0875196Q338.31177523374026,11.7449026,338.7455635337402,11.4231834Q339.1793508337402,11.1014643,339.62840273374024,10.8014178Q340.0774533337402,10.5013714,340.5406873337402,10.2237201Q341.0039193337402,9.946068799999999,341.48021933374025,9.6914818Q341.95651833374023,9.4368947,342.44473433374026,9.2059851Q342.9329523337402,8.975075499999999,343.43191133374023,8.7684Q343.93087133374024,8.5617242,344.4393713337402,8.3797803Q344.94787033374024,8.1978364,345.46468533374025,8.04106247Q345.9814983337402,7.88428855,346.5053843337402,7.75306231Q347.0292683337402,7.62183607,347.55896033374023,7.51647374Q348.08865333374024,7.41111138,348.62287733374023,7.33186673Q349.15710033374023,7.25262207,349.6945723337402,7.199686Q350.23204033374026,7.146749917,350.7714593337402,7.120249959Q351.3108783337402,7.09375,351.85094833374023,7.09375Q352.39101833374025,7.09375,352.9304353337402,7.120249959Q353.4698563337402,7.146749917,354.00732433374026,7.199686Q354.54479233374025,7.25262207,355.07901733374024,7.33186673Q355.61323933374024,7.41111138,356.14293333374025,7.51647374Q356.67262633374025,7.62183607,357.1965103337402,7.75306231Q357.7203943337402,7.88428855,358.23720733374023,8.04106247Q358.75402033374024,8.1978364,359.2625203337402,8.3797803Q359.77101933374024,8.5617242,360.26997733374026,8.7684Q360.7689363337402,8.975075499999999,361.25715233374024,9.2059851Q361.74537233374025,9.4368947,362.22167233374023,9.6914818Q362.6979713337402,9.946068799999999,363.1612013337402,10.2237201Q363.62443133374023,10.5013714,364.0734863337402,10.8014178Q364.5225373337402,11.1014643,364.9563253337402,11.4231834Q365.39011333374026,11.7449026,365.8075943337402,12.0875196Q366.22507133374023,12.4301362,366.62523633374025,12.7928247Q367.0254023337402,13.155513299999999,367.4072913337402,13.5374002Q367.7891803337402,13.9192867,368.15186733374026,14.3194523Q368.51455733374024,14.7196174,368.8571743337402,15.1370974Q369.19978733374023,15.5545769,369.52150733374026,15.9883652Q369.84322733374023,16.4221525,370.14327633374023,16.8712044Q370.44332533374023,17.320255,370.72097433374023,17.783489Q370.9986233337402,18.246721,371.25321233374024,18.723021Q371.50779733374026,19.19932,371.73870433374026,19.687536Q371.96961633374025,20.175753999999998,372.1762923337402,20.674713Q372.3829693337402,21.173673,372.56491433374026,21.682173Q372.74686033374024,22.190672,372.90363333374023,22.707487Q373.0604053337402,23.2243,373.19163533374024,23.748186Q373.3228573337402,24.27207,373.42821933374023,24.801762Q373.53358033374025,25.331455,373.61283133374025,25.865679Q373.6920733337402,26.399902,373.74501433374024,26.937374Q373.79794733374024,27.474842,373.8244513337402,28.014261Q373.85094833374023,28.55368,373.85094833374023,29.09375Z" fill="url(#master_svg9_192_03054)" fill-opacity="1" style="mix-blend-mode:passthrough"/></g><g transform="matrix(0.9942856431007385,0.10675251483917236,-0.10675251483917236,0.9942856431007385,2.0961376276284227,-39.158905742704064)" style="opacity:0.5;"><g><path d="M393.28896922827147,6.1375804C391.14375122827147,2.6968601,390.0709052282715,0.97642577,388.6976622282715,0.38644975C387.4982242282715,-0.12881735,386.14071322827147,-0.12881735,384.9412712282715,0.38644975C383.56779122827146,0.97645086,382.49518222827146,2.6968601,380.3499682282715,6.1378193L370.2737975282715,22.298946C367.89277002827146,26.11804,366.7022445382715,28.027349,366.8286257730715,29.603262C366.93877082827146,30.976751,367.63490551827147,32.235767,368.73845932827146,33.057419C370.0044884282715,34,372.2507424282715,34,376.7432985282715,34L386.8194692282715,34L396.8956372282715,34C401.38824122827145,34,403.6345402282715,34,404.9005012282715,33.057419C406.0041012282715,32.235767,406.7002602282715,30.976751,406.81040622827146,29.603262C406.9367602282715,28.027349,405.7461352282715,26.11804,403.36513922827146,22.298946L393.28896922827147,6.1375804Z" fill="url(#master_svga_192_02607)" fill-opacity="1" style="mix-blend-mode:passthrough"/></g><g><path d="M384.94007753775026,0.38819220067429216C386.13951753775024,-0.12707488932570785,387.49845753775026,-0.12705095932570784,388.69789953775023,0.38819220067429216C390.07066353775025,0.9785510506742922,391.14422453775023,2.698864230674292,393.28896753775024,6.138893530674292L403.3656145377503,22.298829430674292C404.56958653775024,24.229880430674292,405.4688665377503,25.672914430674293,406.04772453775024,26.83131543067429L404.0198125377502,26.83131543067429C403.49745053775024,25.897567430674293,402.7850825377502,24.748975430674292,401.85003853775027,23.24881843067429L391.7733945377502,7.088887630674292C390.68242453775025,5.339224330674292,389.92666653775024,4.130785930674292,389.27985953775027,3.2775847306742922C388.6328125377502,2.423976130674292,388.2496895377502,2.144235530674292,387.99244353775026,2.033605030674292C387.24311853775026,1.712136430674292,386.39461753775026,1.7118973306742922,385.6455335377502,2.033605030674292C385.38828853775027,2.144162630674292,385.00564053775025,2.4232582306742922,384.35787853775025,3.2775847306742922C383.71131153775025,4.130810730674292,382.9576965377502,5.338986330674292,381.86672953775025,7.088887630674292L371.7902264377502,23.24881843067429C370.85513353775025,24.748734430674293,370.14278773775027,25.897567430674293,369.62031153775024,26.83131543067429L367.59477853775024,26.83131543067429C367.88706969775023,26.246259430674293,368.25848865775026,25.587596430674292,368.71232653775024,24.83118743067429L370.27455763775026,22.298829430674292L380.3487725377502,6.138893530674292C382.35952453775025,2.9139098306742923,383.42927053775026,1.1999532306742922,384.6861715377502,0.5118950206742922L384.94007753775026,0.38819220067429216Z" fill="url(#master_svgb_192_02608)" fill-opacity="1" style="mix-blend-mode:passthrough"/></g></g></g></svg>

