<?xml version="1.0" encoding="UTF-8"?>
<svg xmlns="http://www.w3.org/2000/svg" xmlns:xlink="http://www.w3.org/1999/xlink" fill="none" version="1.1" width="145" height="52" viewBox="0 0 145 52"><g><path d="M6.2639999,35.556C6.1559997,37.788002,4.428,39.731998,2.9879999,40.416C2.0519998,40.883999,1.4039999,41.712002,1.7279999,42.683998C2.1599998,43.728001,3.5999999,43.872002,4.6439996,43.259998C6.3359995,42.360001,7.9559999,39.624001,6.8399997,35.556L6.2639999,35.556ZM25.307999,25.548L25.307999,28.572001L10.584,28.572001L10.584,25.548L25.307999,25.548ZM10.584,32.676003L10.584,29.616001L25.307999,29.616001L25.307999,32.676003L10.584,32.676003ZM10.584,33.720001L25.307999,33.720001L25.307999,34.98L25.848,34.98C26.963999,34.98,28.619999,34.223999,28.655998,33.972L28.655998,26.16C29.411999,25.980001,29.952,25.692001,30.167999,25.404001L26.603998,22.668001L24.947998,24.504002L10.799999,24.504002L7.2359996,23.028L7.2359996,35.304001L7.7399998,35.304001C9.0719995,35.304001,10.584,34.584,10.584,34.260002L10.584,33.720001ZM15.839999,34.655998C17.171999,35.807999,18.647999,37.860001,18.935999,39.624001C21.743999,41.639999,24.084,35.844002,16.164,34.403999L15.839999,34.655998ZM26.279999,37.104L25.848,37.104C25.307999,38.939999,24.875999,40.271999,24.515999,40.848C24.299999,41.208,24.119999,41.279999,23.58,41.316002C23.004,41.352001,21.419998,41.388,19.547998,41.388L14.903999,41.388C13.391999,41.388,13.283999,41.243999,13.283999,40.776001L13.283999,36.672001C13.967999,36.599998,14.292,36.276001,14.363999,35.807999L10.08,35.411999L10.08,41.424C10.08,43.655998,10.799999,44.195999,14.435999,44.195999L19.296,44.195999C26.279999,44.195999,27.719999,43.692001,27.719999,42.287998C27.719999,41.675999,27.431999,41.279999,26.387999,40.956001L26.279999,37.104ZM27.216,35.736C28.98,37.355999,30.779999,40.02,31.103998,42.287998C34.199997,44.591999,36.755997,38.040001,27.575998,35.484001L27.216,35.736ZM28.727999,21.192001L21.924,21.192001C23.292,20.220001,24.768,18.996,25.74,18.132002C26.532,18.204,26.963999,17.916,27.107998,17.484001L23.183998,16.296001L31.139999,16.296001C31.643999,16.296001,32.003998,16.116001,32.112,15.720001C30.707998,14.460001,28.403999,12.732,28.403999,12.732L26.351999,15.252001L19.655998,15.252001C20.844,14.028002,20.052,11.004002,14.327999,11.256001L14.039999,11.580002C15.299999,12.372002,16.74,13.848001,17.316,15.252001L4.2479997,15.252001L4.5359998,16.296001L22.391998,16.296001C21.995998,17.772001,21.348,19.716002,20.771999,21.192001L1.7639999,21.192001L2.0879998,22.236L33.515999,22.236C34.019997,22.236,34.379997,22.056002,34.487999,21.660002C33.048,20.400002,30.779999,18.708,30.779999,18.708L28.727999,21.192001ZM10.151999,16.584002C11.016,17.592001,11.988,19.248001,12.131999,20.688002C14.94,22.848001,17.927999,17.412001,10.476,16.368002L10.151999,16.584002ZM47.519997,35.700001C52.559998,36.996002,56.879997,39.155998,58.787998,40.596001C62.208,41.424,62.891998,34.584,47.627998,35.16L47.519997,35.700001ZM50.759998,30.768002C53.388,31.740002,55.511997,33.251999,56.375999,34.260002C59.112,35.232002,60.299995,29.616001,50.903999,30.228001L50.759998,30.768002ZM57.743996,20.292002C56.807999,21.948,55.619995,23.460001,54.143997,24.900002C52.416,23.892,50.939999,22.704,49.823997,21.264C50.075996,20.940001,50.292,20.616001,50.543999,20.292002L57.743996,20.292002ZM59.831997,17.448002L57.888,19.248001L51.227997,19.248001C51.587997,18.564001,51.983997,17.880001,52.271996,17.232C52.955997,17.34,53.315998,17.232,53.459999,16.908001L49.355999,15.18C48.563999,18.456001,46.691998,22.956001,44.351997,26.016001L44.675999,26.448002C46.331997,25.188002,47.916,23.604,49.283997,21.984001C50.147999,23.604,51.299999,25.08,52.596001,26.304001C50.112,28.392,47.015999,30.192001,43.703999,31.488001L43.991997,32.028C47.916,31.056,51.335999,29.544001,54.251999,27.708C56.483997,29.328001,59.147995,30.552,62.099998,31.488001C62.423996,29.976002,63.251999,28.968,64.511993,28.68L64.547997,28.284C61.775997,27.852001,58.967999,27.132,56.519997,26.088001C58.463997,24.468,60.119995,22.704,61.415997,20.688002C62.243996,20.652,62.603996,20.544001,62.891998,20.220001L59.831997,17.448002ZM43.127998,41.279999L43.127998,15.072001L64.907997,15.072001L64.907997,41.279999L43.127998,41.279999ZM66.311996,12.048L64.547997,14.028002L43.416,14.028002L39.779999,12.408001L39.779999,45.023998L40.355999,45.023998C41.831997,45.023998,43.127998,44.16,43.127998,43.728001L43.127998,42.324001L64.907997,42.324001L64.907997,44.844002L65.411995,44.844002C66.671997,44.844002,68.291992,43.944,68.327995,43.655998L68.327995,15.684002C69.047997,15.504002,69.587997,15.252001,69.839996,14.928001L66.311996,12.048ZM101.7,28.032001C100.548,29.76,98.243996,32.352001,96.084,34.260002C94.355995,32.388,92.951996,30.048,92.015999,27.132L105.55199,27.132C106.056,27.132,106.452,26.952,106.52399,26.556C105.12,25.26,102.888,23.424002,102.888,23.424002L100.87199,26.088001L91.871994,26.088001L91.871994,21.912001L102.744,21.912001C103.24799,21.912001,103.60799,21.732,103.716,21.336C102.42,20.112001,100.224,18.384001,100.224,18.384001L98.351997,20.868L91.871994,20.868L91.871994,16.908001L104.29199,16.908001C104.75999,16.908001,105.12,16.728001,105.228,16.332001C103.896,15.072001,101.628,13.272001,101.628,13.272001L99.647995,15.864L91.871994,15.864L91.871994,12.876001C92.807999,12.732,93.131996,12.372002,93.203995,11.868002L88.379997,11.400002L88.379997,15.864L75.815994,15.864L76.103996,16.908001L88.379997,16.908001L88.379997,20.868L77.507996,20.868L77.795998,21.912001L88.379997,21.912001L88.379997,26.088001L73.944,26.088001L74.231995,27.132L86.219994,27.132C83.339996,30.948002,78.623993,34.835999,73.187996,37.32L73.475998,37.824001C76.715996,36.888,79.811996,35.664001,82.511993,34.188L82.511993,40.127998C82.511993,40.740002,82.259995,41.063999,80.748001,41.964001L83.159996,45.456001C83.411995,45.276001,83.699997,45.023998,83.916,44.664001C88.307999,42.287998,92.123993,39.911999,94.283997,38.652L94.139999,38.184002C91.187996,39.119999,88.271996,39.948002,85.931999,40.632L85.931999,32.063999C87.983994,30.588001,89.783997,28.968,91.151993,27.132L91.223999,27.132C93.239998,35.987999,97.595993,41.424,104.14799,44.088001C104.328,42.431999,105.37199,41.172001,107.028,40.416L107.09999,39.948002C103.17599,39.155998,99.575996,37.608002,96.804001,34.944C99.647995,33.863998,102.6,32.316002,104.508,31.02C105.3,31.200001,105.62399,31.02,105.84,30.695999L101.7,28.032001ZM120.09599,21.84L128.664,21.84C128.12399,29.040001,126.252,33.827999,119.66399,37.68L120.06,38.256001C127.07999,35.700001,130.10399,32.136002,131.43599,27.167999C134.388,30.192001,137.77199,34.296001,139.248,37.464001C143.24399,39.948002,145.18799,32.136002,131.68799,26.124001C131.976,24.792,132.15599,23.388,132.26399,21.84L142.23599,21.84C142.73999,21.84,143.13599,21.660002,143.20799,21.264C141.84,19.968,139.608,18.132002,139.608,18.132002L137.592,20.796001L132.37199,20.796001C132.51599,18.528002,132.552,15.972002,132.62399,13.236002C133.452,13.128002,133.812,12.732,133.92,12.192001L128.916,11.760002C128.87999,15.144001,128.87999,18.132002,128.73599,20.796001L119.808,20.796001L120.09599,21.84ZM111.27599,12.408001C112.824,14.496,114.80399,17.556002,115.452,20.004002C118.87199,22.560001,121.644,15.612001,111.63599,12.192001L111.27599,12.408001ZM118.008,36.924L118.008,25.908001C119.01599,25.728001,119.55599,25.476,119.84399,25.152L115.95599,21.984001L114.156,24.360001L109.69199,24.360001L109.908,25.404001L114.696,25.404001L114.696,37.5C113.076,38.543999,110.91599,40.127998,109.33199,41.063999L111.88799,44.736C112.14,44.52,112.284,44.195999,112.17599,43.872002C113.436,42,115.52399,39.264,116.31599,38.147999C116.712,37.571999,117.072,37.5,117.53999,38.147999C120.672,42.467999,123.91199,44.015999,130.93199,44.015999L140.832,44.015999C140.976,42.576,141.73199,41.459999,143.13599,41.136002L143.13599,40.667999C139.17599,40.883999,135.864,40.919998,131.976,40.919998C124.95599,40.919998,121.14,40.164001,118.07999,36.996002L118.008,36.924Z" fill="#FFFFFF" fill-opacity="1"/></g></svg>