<?xml version="1.0" encoding="UTF-8"?>
<svg xmlns="http://www.w3.org/2000/svg" xmlns:xlink="http://www.w3.org/1999/xlink" fill="none" version="1.1" width="327.2821044921875" height="238" viewBox="0 0 327.2821044921875 238"><defs><clipPath id="master_svg0_310_12713"><rect x="150" y="75" width="163" height="163" rx="0"/></clipPath><mask id="master_svg1_310_12720" style="mask-type:alpha" maskUnits="objectBoundingBox"><g><g><rect x="150" y="75" width="163" height="163" rx="0" fill="#FFFFFF" fill-opacity="1" style="mix-blend-mode:passthrough"/></g><g><path d="M170.8845394525757,80.21976866964843C170.05959745257567,79.78007602964844,169.06040445257568,79.78007602964844,168.2354634525757,80.21976866964843L157.91842863257568,85.71955058964843C157.33329101257567,86.03146698964844,157.34571138257567,86.87438968964844,157.93981376257568,87.16893048964843L168.11190845257568,92.21214938964843C169.02438345257568,92.66447438964843,170.09561945257568,92.66447438964843,171.00809245257568,92.21214938964843L181.1802684525757,87.16893048964843C181.7742434525757,86.87438968964844,181.7867934525757,86.03146698964844,181.2016214525757,85.71955058964843L170.8845394525757,80.21976866964843Z" fill="#000000" fill-opacity="1" style="mix-blend-mode:passthrough"/></g></g></mask><linearGradient x1="0.5" y1="0" x2="0.5" y2="1" id="master_svg2_192_03054"><stop offset="0%" stop-color="#575757" stop-opacity="1"/><stop offset="100%" stop-color="#151515" stop-opacity="1"/></linearGradient><linearGradient x1="0.5" y1="0" x2="0.4999978321863093" y2="1.0299025773968993" id="master_svg3_203_06028"><stop offset="0%" stop-color="#E3E3E5" stop-opacity="0.6000000238418579"/><stop offset="100%" stop-color="#BBBBC0" stop-opacity="0.6000000238418579"/></linearGradient><mask id="master_svg4_310_12727" style="mask-type:alpha" maskUnits="objectBoundingBox"><g><g><path d="M237.01892454467773,96.74903699265137C233.58166154467773,94.91698402265136,229.41836154467774,94.91698402265136,225.98110154467773,96.74903699265137L182.99345304467772,119.66479909265136C180.55537927467773,120.96445109265136,180.60713082467774,124.47662909265136,183.08255784467772,125.70388209265137L225.46629354467774,146.71729809265136C229.26827254467773,148.60198409265138,233.73175454467773,148.60198409265138,237.53372954467773,146.71729809265136L279.91779754467774,125.70388209265137C282.39269454467774,124.47662909265136,282.4449845446777,120.96445109265136,280.00677154467775,119.66479909265136L237.01892454467773,96.74903699265137Z" fill="url(#master_svg3_203_06028)" fill-opacity="1" style="mix-blend-mode:passthrough"/></g></g></mask><filter id="master_svg5_310_12726" filterUnits="objectBoundingBox" color-interpolation-filters="sRGB" x="-0.056091148115687994" y="-0.052491353946498044" width="1.1121822962313759" height="1.1049827078929961"><feFlood flood-opacity="0" result="BackgroundImageFix"/><feBlend mode="normal" in="SourceGraphic" in2="BackgroundImageFix" result="shape"/><feGaussianBlur stdDeviation="2" result="effect1_foregroundBlur"/></filter><linearGradient x1="0.5" y1="0" x2="0.5" y2="1" id="master_svg6_192_03054"><stop offset="0%" stop-color="#575757" stop-opacity="1"/><stop offset="100%" stop-color="#151515" stop-opacity="1"/></linearGradient><linearGradient x1="0.5" y1="0" x2="0.5" y2="1" id="master_svg7_192_02962"><stop offset="0%" stop-color="#151515" stop-opacity="1"/><stop offset="100%" stop-color="#575757" stop-opacity="1"/></linearGradient><linearGradient x1="0.5" y1="0" x2="0.5" y2="1" id="master_svg8_192_02598"><stop offset="0%" stop-color="#E3E3E5" stop-opacity="0.6000000238418579"/><stop offset="100%" stop-color="#BBBBC0" stop-opacity="0.6000000238418579"/></linearGradient><linearGradient x1="0.5" y1="0" x2="0.5" y2="0.5791428685188293" id="master_svg9_sa109_4184"><stop offset="0%" stop-color="#FFFFFF" stop-opacity="1"/><stop offset="100%" stop-color="#FFFFFF" stop-opacity="0"/></linearGradient><clipPath id="master_svga_310_12688"><rect x="70" y="43" width="125" height="125" rx="0"/></clipPath><mask id="master_svgb_310_12693" style="mask-type:alpha" maskUnits="objectBoundingBox"><g><g><rect x="70" y="43" width="520.8333740234375" height="520.8333740234375" rx="0" fill="#FFFFFF" fill-opacity="1" style="mix-blend-mode:passthrough"/></g><g><path d="M136.732315421875,59.6787108C134.096378421875,58.27376223,130.903663421875,58.27376223,128.267726421875,59.6787108L95.301739721875,77.252148C93.432051241875,78.248814,93.471738011875,80.94220200000001,95.370071521875,81.883347L127.87293642187501,97.997929C130.78856242187499,99.443241,134.211479421875,99.443241,137.127105421875,97.997929L169.630226421875,81.883347C171.528152421875,80.94220200000001,171.568252421875,78.248814,169.698455421875,77.252148L136.732315421875,59.6787108Z" fill="#000000" fill-opacity="1" style="mix-blend-mode:passthrough"/></g></g></mask><linearGradient x1="0.5" y1="0" x2="0.5" y2="1" id="master_svgc_192_03054"><stop offset="0%" stop-color="#575757" stop-opacity="1"/><stop offset="100%" stop-color="#151515" stop-opacity="1"/></linearGradient><linearGradient x1="0.5" y1="0" x2="0.4999978321865843" y2="1.0299025773968993" id="master_svgd_203_06028"><stop offset="0%" stop-color="#E3E3E5" stop-opacity="0.6000000238418579"/><stop offset="100%" stop-color="#BBBBC0" stop-opacity="0.6000000238418579"/></linearGradient><mask id="master_svge_310_12698" style="mask-type:alpha" maskUnits="objectBoundingBox"><g><g><path d="M136.73231160717773,59.678708892651365C134.09637460717772,58.27376032265137,130.90365960717773,58.27376032265137,128.26772260717775,59.678708892651365L95.30173590717773,77.25214609265137C93.43204742717774,78.24881209265136,93.47173419717774,80.94220009265138,95.37006770717774,81.88334509265137L127.87293260717775,97.99792709265137C130.78855860717772,99.44323909265137,134.21147560717773,99.44323909265137,137.12710160717774,97.99792709265137L169.63022260717773,81.88334509265137C171.52814860717774,80.94220009265138,171.56824860717774,78.24881209265136,169.69845160717773,77.25214609265137L136.73231160717773,59.678708892651365Z" fill="url(#master_svgd_203_06028)" fill-opacity="1" style="mix-blend-mode:passthrough"/></g></g></mask><filter id="master_svgf_310_12697" filterUnits="objectBoundingBox" color-interpolation-filters="sRGB" x="-0.07314285714285715" y="-0.06844872423044993" width="1.1462857142857144" height="1.1368974484608998"><feFlood flood-opacity="0" result="BackgroundImageFix"/><feBlend mode="normal" in="SourceGraphic" in2="BackgroundImageFix" result="shape"/><feGaussianBlur stdDeviation="2" result="effect1_foregroundBlur"/></filter><linearGradient x1="0.5" y1="0" x2="0.5" y2="1" id="master_svgg_192_03054"><stop offset="0%" stop-color="#575757" stop-opacity="1"/><stop offset="100%" stop-color="#151515" stop-opacity="1"/></linearGradient><linearGradient x1="0.5" y1="0" x2="0.4999978321865843" y2="1.0299025773968993" id="master_svgh_203_06028"><stop offset="0%" stop-color="#E3E3E5" stop-opacity="0.6000000238418579"/><stop offset="100%" stop-color="#BBBBC0" stop-opacity="0.6000000238418579"/></linearGradient><linearGradient x1="0.5" y1="0" x2="0.49997301074276446" y2="0.5790991774022085" id="master_svgi_203_06035"><stop offset="0%" stop-color="#FFFFFF" stop-opacity="1"/><stop offset="100%" stop-color="#FFFFFF" stop-opacity="0"/></linearGradient><linearGradient x1="0.5" y1="0" x2="0.5" y2="1" id="master_svgj_192_02962"><stop offset="0%" stop-color="#151515" stop-opacity="1"/><stop offset="100%" stop-color="#575757" stop-opacity="1"/></linearGradient><clipPath id="master_svgk_310_12730"><rect x="0" y="0" width="117" height="117" rx="0"/></clipPath><mask id="master_svgl_310_12740" style="mask-type:alpha" maskUnits="objectBoundingBox"><g><g><rect x="0" y="0" width="487.5000305175781" height="487.5000305175781" rx="0" fill="#FFFFFF" fill-opacity="1" style="mix-blend-mode:passthrough"/></g><g><path d="M62.46142552734375,15.61127335C59.99418652734375,14.29624143,57.00580552734375,14.29624143,54.53857052734375,15.61127335L23.68240822734375,32.060011C21.93237998734375,32.992891,21.96952679734375,35.513903,23.74636682734375,36.394814L54.16904652734375,51.478062C56.89807152734375,52.830875,60.10192152734375,52.830875,62.83094752734375,51.478062L93.25386852734376,36.394814C95.03032652734375,35.513903,95.06785552734375,32.992891,93.31772652734375,32.060011L62.46142552734375,15.61127335Z" fill="#000000" fill-opacity="1" style="mix-blend-mode:passthrough"/></g></g></mask><linearGradient x1="0.5" y1="0" x2="0.5" y2="1" id="master_svgm_192_03054"><stop offset="0%" stop-color="#575757" stop-opacity="1"/><stop offset="100%" stop-color="#151515" stop-opacity="1"/></linearGradient><linearGradient x1="0.5" y1="0" x2="0.4999978321870198" y2="1.029902577396899" id="master_svgn_203_06028"><stop offset="0%" stop-color="#E3E3E5" stop-opacity="0.6000000238418579"/><stop offset="100%" stop-color="#BBBBC0" stop-opacity="0.6000000238418579"/></linearGradient><mask id="master_svgo_310_12736" style="mask-type:alpha" maskUnits="objectBoundingBox"><g><g><path d="M62.461421712646484,15.611271442651367C59.994182712646484,14.296239522651367,57.00580171264649,14.296239522651367,54.538566712646485,15.611271442651367L23.682404412646484,32.06000909265137C21.932376172646485,32.99288909265137,21.969522982646485,35.513901092651366,23.746363012646484,36.394812092651364L54.16904271264649,51.47806009265137C56.89806771264649,52.830873092651366,60.10191771264648,52.830873092651366,62.83094371264649,51.47806009265137L93.25386471264649,36.394812092651364C95.03032271264648,35.513901092651366,95.06785171264649,32.99288909265137,93.31772271264649,32.06000909265137L62.461421712646484,15.611271442651367Z" fill="url(#master_svgn_203_06028)" fill-opacity="1" style="mix-blend-mode:passthrough"/></g></g></mask><filter id="master_svgp_310_12735" filterUnits="objectBoundingBox" color-interpolation-filters="sRGB" x="-0.07814407814407814" y="-0.07312898222435475" width="1.1562881562881564" height="1.1462579644487094"><feFlood flood-opacity="0" result="BackgroundImageFix"/><feBlend mode="normal" in="SourceGraphic" in2="BackgroundImageFix" result="shape"/><feGaussianBlur stdDeviation="2" result="effect1_foregroundBlur"/></filter><linearGradient x1="0.5" y1="0" x2="0.5" y2="1" id="master_svgq_192_03054"><stop offset="0%" stop-color="#575757" stop-opacity="1"/><stop offset="100%" stop-color="#151515" stop-opacity="1"/></linearGradient><linearGradient x1="0.5" y1="0" x2="0.4999978321870198" y2="1.029902577396899" id="master_svgr_203_06028"><stop offset="0%" stop-color="#E3E3E5" stop-opacity="0.6000000238418579"/><stop offset="100%" stop-color="#BBBBC0" stop-opacity="0.6000000238418579"/></linearGradient><linearGradient x1="0.5" y1="0" x2="0.4999730107431793" y2="0.5790991774022085" id="master_svgs_203_06035"><stop offset="0%" stop-color="#FFFFFF" stop-opacity="1"/><stop offset="100%" stop-color="#FFFFFF" stop-opacity="0"/></linearGradient><linearGradient x1="0.5" y1="0" x2="0.5" y2="1" id="master_svgt_192_02962"><stop offset="0%" stop-color="#151515" stop-opacity="1"/><stop offset="100%" stop-color="#575757" stop-opacity="1"/></linearGradient><linearGradient x1="0.5" y1="0" x2="0.5000209252433132" y2="0.5791187286375503" id="master_svgu_192_03060"><stop offset="0%" stop-color="#FFFFFF" stop-opacity="1"/><stop offset="100%" stop-color="#FFFFFF" stop-opacity="0"/></linearGradient><linearGradient x1="0.5" y1="0" x2="0.5" y2="1" id="master_svgv_192_02598"><stop offset="0%" stop-color="#E3E3E5" stop-opacity="0.6000000238418579"/><stop offset="100%" stop-color="#BBBBC0" stop-opacity="0.6000000238418579"/></linearGradient><linearGradient x1="0.5" y1="0" x2="0.5" y2="1" id="master_svgw_192_02598"><stop offset="0%" stop-color="#E3E3E5" stop-opacity="0.6000000238418579"/><stop offset="100%" stop-color="#BBBBC0" stop-opacity="0.6000000238418579"/></linearGradient><mask id="master_svgx_310_12682" style="mask-type:alpha" maskUnits="objectBoundingBox"><g><g><path d="M302.6597097265625,16.9390216C308.2934037265625,11.3070098,317.4191737265625,11.314248,323.0520247265625,16.947228C328.6853027265625,22.5802507,328.69245172656247,31.705894,323.06044772656253,37.339546L274.0193467265625,86.384712C271.4316007265625,88.972427,265.8999137265625,91.13382,260.2436627265625,92.795692L260.2436627265625,92.795692C260.1495227265625,92.828941,260.0501207265625,92.853767,259.9518577265625,92.881966C259.3500237265625,93.05703,258.7479357265625,93.228317,258.1477037265625,93.391594L258.1394947265625,93.383598C254.8684017265625,94.273239,251.6735186265625,95.002129,249.0981455265625,95.529015C246.2991826265625,96.100929,243.8939103765625,93.695862,244.4664961695625,90.897316C244.9937578465625,88.323502,245.7178858265625,85.129372,246.6076541265625,81.859924L246.6076541265625,81.859924C246.6892109265625,81.541344,246.7818365265625,81.226143,246.8706748265625,80.910522C246.9792499265625,80.52504,247.0820174265625,80.137024,247.1953473265625,79.751549L247.1953473265625,79.751549C248.8628993265625,74.09975399999999,251.0306959265625,68.568325,253.6188221265625,65.980198L302.6597097265625,16.9390216Z" fill="url(#master_svgw_192_02598)" fill-opacity="1" style="mix-blend-mode:passthrough"/></g></g></mask></defs><g><g clip-path="url(#master_svg0_310_12713)"><g><g mask="url(#master_svg1_310_12720)"><g><path d="M224.973885,81.9654465078125C229.038704,79.7395453478125,233.96130399999998,79.7395453478125,238.02612299999998,81.9654465078125L295.75527999999997,113.58255750781251C300.1067,115.9662285078125,302.81183,120.5330815078125,302.8125,125.4944645078125L302.8125,187.5014905078125C302.8125,192.4641805078125,300.10806,197.0363205078125,295.75527999999997,199.4201905078125L238.02612299999998,231.0306505078125C235.99404900000002,232.1438105078125,233.74601,232.7020705078125,231.5,232.7020705078125C229.253998,232.7020705078125,227.00595900000002,232.1438105078125,224.973885,231.0306505078125L167.2444506,199.4201905078125C162.8920102,197.0363205078125,160.1875,192.4641805078125,160.1875,187.5014905078125L160.1875,125.4944645078125C160.18790724379,120.5330815078125,162.8932326,115.9662285078125,167.2444506,113.58255750781251L224.973885,81.9654465078125Z" fill="url(#master_svg2_192_03054)" fill-opacity="1" style="mix-blend-mode:passthrough"/></g></g><g mask="url(#master_svg4_310_12727)"><g filter="url(#master_svg5_310_12726)"><path d="M224.97388118530273,81.96629909265137C229.03870018530273,79.74039793265136,233.96130018530272,79.74039793265136,238.02611918530272,81.96629909265137L295.7552761853027,113.58341009265138C300.1066961853027,115.96708109265137,302.8118261853027,120.53393409265136,302.81249618530273,125.49531709265136L302.81249618530273,187.50234309265136C302.81249618530273,192.46503309265137,300.10805618530276,197.03717309265136,295.7552761853027,199.42104309265136L238.02611918530272,231.03150309265138C235.99404518530275,232.14466309265137,233.74600618530275,232.70292309265136,231.49999618530273,232.70292309265136C229.25399418530273,232.70292309265136,227.00595518530275,232.14466309265137,224.97388118530273,231.03150309265138L167.24444678530273,199.42104309265136C162.89200638530272,197.03717309265136,160.18749618530273,192.46503309265137,160.18749618530273,187.50234309265136L160.18749618530273,125.49531709265136C160.18790342909273,120.53393409265136,162.89322878530274,115.96708109265137,167.24444678530273,113.58341009265138L224.97388118530273,81.96629909265137Z" fill="url(#master_svg6_192_03054)" fill-opacity="1" style="mix-blend-mode:passthrough"/></g></g><g><path d="M302.8125,187.5004765078125C302.8125,192.4624555078125,300.107384,197.0352855078125,295.75527999999997,199.4184875078125L238.0261149,231.0289455078125C235.9940476,232.14209550781248,233.7460036,232.7003755078125,231.5,232.7003755078125L231.5,164.8502615078125C233.7113645,164.8502615078125,235.9261298,164.3110045078125,237.9337459,163.2318115078125L299.032257,130.3944402078125C300.857864,129.4124305078125,302.1082,127.9244476078125,302.8125,126.2491455078125L302.8125,187.5004765078125Z" fill="url(#master_svg7_192_02962)" fill-opacity="1" style="mix-blend-mode:passthrough"/></g></g><g transform="matrix(0.8522564768791199,-0.5231241583824158,0.8284281492233276,0.5600952506065369,-74.1713666342257,144.14700090957922)" style="opacity:0.75;"><g><path d="M243.36075596875,154.33419075Q243.36074796875,155.16256675,243.31906096875,155.98994875Q243.27737396875,156.81732975,243.19410696875002,157.64171575Q243.11082496875,158.46610275,242.98616796875,159.28551475Q242.86150396875001,160.10492675,242.69575496875,160.91738475Q242.53001396874998,161.72984275,242.32357796875,162.53339775Q242.11714196875,163.33695175,241.87052896875,164.12965775Q241.62390096874998,164.92236375,241.33767696875,165.70231675Q241.05146796875,166.48226975,240.72634096874998,167.24758875Q240.40121496875,168.01290875,240.03797196875,168.76175675000002Q239.67472796875,169.51060475,239.27423896875,170.24116874999999Q238.87374096874998,170.97172975,238.43696596875,171.68225075Q238.00019096875,172.39277275,237.52818296875,173.08154274999998Q237.05618296875,173.77030975,236.55008296875,174.43567275Q236.04398696875,175.10102875,235.50501596875,175.74137875Q234.96604196875,176.38171775,234.39549296875,176.99550275Q233.82494396875,177.60929075,233.22419696875,178.19504175Q232.62344696875,178.78079175,231.99394596874998,179.33709675Q231.36444096875,179.89340175,230.70770296875,180.41891875Q230.05096096875,180.94443475,229.36856496875,181.43790074999998Q228.68616896875,181.93136575,227.97976296875,182.39158675Q227.27335396875,182.85181075,226.54464296875,183.27767975Q225.81592896875,183.70355175,225.06666596875,184.09404775000002Q224.31739396875,184.48454275,223.54937396875,184.83871475Q222.78135696875,185.19290175,221.99643696875,185.50990274999998Q221.21151696875,185.82691175,220.41159396875,186.10598775Q219.61167096875,186.38505575,218.79867196875,186.62551875Q217.98566396875,186.86598175,217.16153696875,187.06726075Q216.33741396875,187.26853975,215.50414996875,187.43014575Q214.67089096875,187.59175075000002,213.83049796875,187.71330975Q212.99010496875002,187.83485374999998,212.14461096875,187.91605375Q211.29911396875,187.99724575,210.45054996875,188.03788774999998Q209.60198596875,188.07853675,208.75239896875001,188.07853675Q207.90280896875,188.07853675,207.05424496875,188.03789475000002Q206.20568096875002,187.99724575,205.36018796875,187.91605375Q204.51468996875,187.83485374999998,203.67429696875,187.71330975Q202.83390396875,187.59175075000002,202.00064096875,187.43014575Q201.16737796875,187.26853975,200.34325196875,187.06726075Q199.51912496875,186.86598175,198.70612096874999,186.62551875Q197.89311596875,186.38505575,197.09319096875,186.10597975000002Q196.29326596875,185.82690474999998,195.50834996875,185.50989575Q194.72343396875,185.19288675,193.95541796875,184.83871475Q193.18739896875,184.48453875,192.43812896875,184.09404775000002Q191.68885996875,183.70355175,190.96014396875,183.27767975Q190.23142996875,182.85180675,189.52502296875,182.39158675Q188.81861796875,181.93136575,188.13622396875,181.43790074999998Q187.45382896875,180.94443475,186.79708896875,180.41892275Q186.14034796875,179.89340175,185.51084696875,179.33709675Q184.88134396875,178.78079575,184.28059496875,178.19504575Q183.67984576875,177.60929475,183.10929776875,176.99550975Q182.53874966875,176.38172175,181.99977726875,175.74138275Q181.46080446875,175.10103575,180.95470566875,174.43567275Q180.44860696875,173.77031375,179.97660156875,173.08154274999998Q179.50459576875,172.39277275,179.06782056875,171.68225075Q178.63104536875,170.97172575,178.23055316875,170.24116475Q177.83006026875,169.51060075,177.46681476875,168.76175675000002Q177.10356946875,168.01290875,176.77844666875,167.24758875Q176.45332356875,166.48226975,176.16710636875,165.70231675Q175.88088906875,164.92236375,175.63426686875,164.12965375Q175.38764466875,163.33694875,175.18121186875,162.53339775Q174.97477894875,161.72984275,174.80903267875,160.91738475Q174.64328640875,160.10492675,174.51862609875,159.28551475Q174.39396574875,158.46610275,174.31069163875,157.64171575Q174.22741751375,156.81732975,174.18573024075,155.98994875Q174.14404296875,155.16256675,174.14404296875,154.33419075Q174.14404296875,153.50581375000002,174.18573024075,152.67843675Q174.22741751375,151.85105475,174.31069163875,151.02666875Q174.39396574875,150.20227775,174.51862609875,149.38286575Q174.64328640875,148.56345375,174.80903267875,147.75099375Q174.97477894875,146.93853375,175.18121186875,146.13498075Q175.38764476875,145.33143075,175.63426696875,144.53872275Q175.88088916875,143.74601375,176.16710636875,142.96605875Q176.45332356875,142.18610375,176.77844666875,141.42078375Q177.10356946875,140.65546375,177.46681496875,139.90661975Q177.83006026875,139.15777574999998,178.23055316875,138.42721575Q178.63104536875,137.69665175,179.06782056875,136.98612775Q179.50459576875,136.27560375,179.97660156875,135.58683375Q180.44860696875,134.89806375,180.95470566875,134.23270475Q181.46080446875,133.56734675,181.99977726875,132.92700274999999Q182.53874966875,132.28665875000002,183.10929776875,131.67287175Q183.67984576875,131.05908375,184.28059496875,130.47333335Q184.88134396875,129.88758275,185.51084596875,129.33127885Q186.14034896875,128.77497485,186.79708996875002,128.24945735Q187.45382896875,127.72393985,188.13622296875,127.23047595Q188.81861796875,126.73701195,189.52502296875,126.27679065Q190.23142996875,125.81656885,190.96014396875,125.39069795Q191.68885996875,124.96482705,192.43812896875,124.57433315Q193.18739896875,124.18383885,193.95541796875,123.82966185Q194.72343396875,123.47548485,195.50834996875,123.15847875Q196.29326596875,122.84147235,197.09319096875,122.56240055Q197.89311596875,122.28332885,198.70612096874999,122.04286385Q199.51912496875,121.80239865,200.34324996875,121.60111935Q201.16737796875,121.39984012,202.00064096875,121.23823178Q202.83390396875,121.07662344,203.67429696875,120.95507526Q204.51468996875,120.83352713,205.36018796875,120.75233199Q206.20568096875002,120.671136826,207.05424496875,120.630490288Q207.90280896875,120.58984375,208.75239896875001,120.58984375Q209.60198596875,120.58984375,210.45054996875,120.630490288Q211.29911396875,120.671136826,212.14461096875,120.75233199Q212.99010496875002,120.83352713,213.83049796875,120.95507526Q214.67089096875,121.07662344,215.50414996875,121.23823178Q216.33741396875,121.39984012,217.16154096875,121.60111935Q217.98566796875,121.80239865,218.79867596875,122.04286385Q219.61167496875,122.28332885,220.41159796875002,122.56240065Q221.21151696875,122.84147235,221.99643696875,123.15847875Q222.78135696875,123.47548485,223.54937396875,123.82966185Q224.31738996875,124.18383885,225.06666196875,124.57433315Q225.81592596875,124.96482705,226.54464296875,125.39069795Q227.27335396875,125.81656885,227.97976296875,126.27679065Q228.68616896875,126.73701195,229.36856496875,127.23047635Q230.05096096875,127.72393985,230.70770296875,128.24945735Q231.36444096875,128.77497485,231.99394196875,129.33127885Q232.62344696875,129.88758275,233.22419696875,130.47333335Q233.82494396875,131.05908375,234.39549296875,131.67287075Q234.96604196875,132.28665775,235.50501596875,132.92700175Q236.04398696875,133.56734675,236.55008696875,134.23270475Q237.05618296875,134.89806375,237.52818696875,135.58683375Q238.00019496875,136.27560375,238.43696596875,136.98612775Q238.87374896875,137.69665175,239.27423896875,138.42721575Q239.67472796875,139.15777775,240.03797896875,139.90661975Q240.40121496875,140.65546375,240.72634096874998,141.42078575Q241.05146796875,142.18610575,241.33768496875,142.96605875Q241.62390096874998,143.74601375,241.87052896875,144.53872275Q242.11714196875,145.33143075,242.32357796875,146.13498275Q242.53001396874998,146.93853375,242.69575496875,147.75099375Q242.86150396875001,148.56345375,242.98616796875,149.38286575Q243.11082496875,150.20227775,243.19410696875002,151.02666875Q243.27737396875,151.85105475,243.31906096875,152.67843275Q243.36074796875,153.50581375000002,243.36075596875,154.33419075Z" fill="url(#master_svg8_192_02598)" fill-opacity="1" style="mix-blend-mode:passthrough"/></g><g><path d="M208.75239896875001,120.58984375C227.86609996875,120.58984375,243.36075596875,135.69767075,243.36075596875,154.33419075C243.36075596875,172.97071075,227.86609996875,188.07853675,208.75239896875001,188.07853675C189.63869796875,188.07853675,174.14404296875,172.97071075,174.14404296875,154.33419075C174.14404296875,135.69767075,189.63869796875,120.58984375,208.75239896875001,120.58984375ZM208.75239896875001,124.20531015C191.68651996875,124.20531015,177.85208156875,137.69436875,177.85208156875,154.33419075C177.85208156875,170.97401075,191.68651996875,184.46307375,208.75239896875001,184.46307375C225.81827496875002,184.46307375,239.65271796874998,170.97401075,239.65271796874998,154.33419075C239.65271796874998,137.69436875,225.81827496875002,124.20531015,208.75239896875001,124.20531015Z" fill="url(#master_svg9_sa109_4184)" fill-opacity="1" style="mix-blend-mode:passthrough"/></g></g></g><g style="opacity:0.75;" clip-path="url(#master_svga_310_12688)"><g><g mask="url(#master_svgb_310_12693)"><g><path d="M127.495312,48.3416359671875C130.612503,46.6346566071875,134.387501,46.6346566071875,137.504692,48.3416359671875L181.77552,72.58788636718751C185.1125,74.4158553671875,187.18698999999998,77.9180413671875,187.1875,81.7227863671875L187.1875,129.2741853671875C187.1875,133.0799253671875,185.11355,136.5861663671875,181.77552,138.4142913671875L137.504692,162.6554413671875C135.946358,163.5090913671875,134.222397,163.9372113671875,132.5,163.9372113671875C130.777607,163.9372113671875,129.05364600000001,163.5090913671875,127.495312,162.6554413671875L83.2242718,138.4142913671875C79.8865108,136.5861663671875,77.8125,133.0799253671875,77.8125,129.2741853671875L77.8125,81.7227863671875C77.81281230351,77.9180413671875,79.8874483,74.4158553671875,83.2242718,72.58788636718751L127.495312,48.3416359671875Z" fill="url(#master_svgc_192_03054)" fill-opacity="1" style="mix-blend-mode:passthrough"/></g></g><g mask="url(#master_svge_310_12698)"><g filter="url(#master_svgf_310_12697)"><path d="M127.49530818530273,48.34224441140137C130.61249918530274,46.63526505140137,134.38749718530272,46.63526505140137,137.50468818530274,48.34224441140137L181.77551618530273,72.58849481140138C185.11249618530275,74.41646381140137,187.18698618530271,77.91864981140137,187.18749618530273,81.72339481140136L187.18749618530273,129.27479381140137C187.18749618530273,133.08053381140138,185.11354618530274,136.58677481140137,181.77551618530273,138.41489981140137L137.50468818530274,162.65604981140137C135.94635418530274,163.50969981140136,134.22239318530274,163.93781981140137,132.49999618530273,163.93781981140137C130.77760318530272,163.93781981140137,129.05364218530275,163.50969981140136,127.49530818530273,162.65604981140137L83.22426798530273,138.41489981140137C79.88650698530273,136.58677481140137,77.81249618530273,133.08053381140138,77.81249618530273,129.27479381140137L77.81249618530273,81.72339481140136C77.81280848881273,77.91864981140137,79.88744448530274,74.41646381140137,83.22426798530273,72.58849481140138L127.49530818530273,48.34224441140137Z" fill="url(#master_svgg_192_03054)" fill-opacity="1" style="mix-blend-mode:passthrough"/></g></g><g><path d="M136.732315421875,59.6787108C134.096378421875,58.27376223,130.903663421875,58.27376223,128.267726421875,59.6787108L95.301739721875,77.252148C93.432051241875,78.248814,93.471738011875,80.94220200000001,95.370071521875,81.883347L127.87293642187501,97.997929C130.78856242187499,99.443241,134.211479421875,99.443241,137.127105421875,97.997929L169.630226421875,81.883347C171.528152421875,80.94220200000001,171.568252421875,78.248814,169.698455421875,77.252148L136.732315421875,59.6787108Z" fill="url(#master_svgh_203_06028)" fill-opacity="1" style="mix-blend-mode:passthrough"/></g><g><path d="M128.26873751171874,59.6777887484375C130.90415151171874,58.2732574384375,134.09686251171874,58.2732574384375,136.73227651171874,59.6777887484375L169.69635051171875,77.2508086484375C171.56613951171875,78.2475276484375,171.52863351171874,80.9432586484375,169.63019551171874,81.8844036484375L137.12915451171875,97.9979436484375L136.00988051171873,98.4708636484375C133.74113451171874,99.2828406484375,131.25988351171875,99.2828406484375,128.99113051171875,98.4708636484375L127.87186051171875,97.9979436484375L95.37082111171875,81.8844036484375C93.47253984171876,80.9432586484375,93.43498641171875,78.2475276484375,95.30472711171875,77.2508086484375L128.26873751171874,59.6777887484375ZM134.89634351171875,63.1262779484375C133.40884351171874,62.333517348437496,131.59217451171875,62.333517348437496,130.10467551171877,63.1262779484375L99.36863371171874,79.50914164843749L129.60623951171874,94.4983636484375C131.42863451171874,95.4015926484375,133.57238351171875,95.4015926484375,135.39478351171874,94.4983636484375L165.62760151171875,79.50914164843749L134.89634351171875,63.1262779484375Z" fill="url(#master_svgi_203_06035)" fill-opacity="1" style="mix-blend-mode:passthrough"/></g><g><path d="M187.1875,129.273391671875C187.1875,133.078594671875,185.113022,136.585361671875,181.77552,138.412971671875L137.5046892,162.654121671875C135.9463556,163.507766671875,134.2223954,163.935890671875,132.5,163.935890671875L132.5,111.903596671875C134.1958317,111.903596671875,135.8942711,111.490054671875,137.4338541,110.662454671875L184.28854,85.480420571875C185.688545,84.727345671875,186.647392,83.586254571875,187.1875,82.301513671875L187.1875,129.273391671875Z" fill="url(#master_svgj_192_02962)" fill-opacity="1" style="mix-blend-mode:passthrough"/></g></g></g><g style="opacity:0.5;" clip-path="url(#master_svgk_310_12730)"><g><g mask="url(#master_svgl_310_12740)"><g><path d="M53.815613,4.999813171875C56.733303,3.402080591875,60.266701,3.402080591875,63.184391,4.999813171875L104.621887,27.694301671875C107.7453,29.405280671875,109.68702,32.683326671875,109.6875,36.244567671875L109.6875,80.752670671875C109.6875,84.314849671875,107.74628,87.596687671875,104.621887,89.307815671875L63.184391,111.997523671875C61.725792,112.796543671875,60.112164,113.197263671875,58.5,113.197263671875C56.88784,113.197263671875,55.274212,112.796543671875,53.815613,111.997523671875L12.3779182,89.307815671875C9.2537742,87.596687671875,7.3125,84.314849671875,7.3125,80.752670671875L7.3125,36.244567671875C7.31279231608,32.683326671875,9.2546515,29.405280671875,12.3779182,27.694301671875L53.815613,4.999813171875Z" fill="url(#master_svgm_192_03054)" fill-opacity="1" style="mix-blend-mode:passthrough"/></g></g><g mask="url(#master_svgo_310_12736)"><g filter="url(#master_svgp_310_12735)"><path d="M53.81560918530273,5.000299545776367C56.733299185302734,3.402566965776367,60.26669718530273,3.402566965776367,63.18438718530273,5.000299545776367L104.62188318530274,27.694788045776367C107.74529618530273,29.40576704577637,109.68701618530274,32.68381304577637,109.68749618530273,36.245054045776364L109.68749618530273,80.75315704577636C109.68749618530273,84.31533604577636,107.74627618530273,87.59717404577637,104.62188318530274,89.30830204577637L63.18438718530273,111.99801004577637C61.72578818530273,112.79703004577637,60.112160185302734,113.19775004577637,58.499996185302734,113.19775004577637C56.88783618530273,113.19775004577637,55.27420818530273,112.79703004577637,53.81560918530273,111.99801004577637L12.377914385302734,89.30830204577637C9.253770385302735,87.59717404577637,7.312496185302734,84.31533604577636,7.312496185302734,80.75315704577636L7.312496185302734,36.245054045776364C7.312788501382735,32.68381304577637,9.254647685302734,29.40576704577637,12.377914385302734,27.694788045776367L53.81560918530273,5.000299545776367Z" fill="url(#master_svgq_192_03054)" fill-opacity="1" style="mix-blend-mode:passthrough"/></g></g><g><path d="M62.46142552734375,15.61127335C59.99418652734375,14.29624143,57.00580552734375,14.29624143,54.53857052734375,15.61127335L23.68240822734375,32.060011C21.93237998734375,32.992891,21.96952679734375,35.513903,23.74636682734375,36.394814L54.16904652734375,51.478062C56.89807152734375,52.830875,60.10192152734375,52.830875,62.83094752734375,51.478062L93.25386852734376,36.394814C95.03032652734375,35.513903,95.06785552734375,32.992891,93.31772652734375,32.060011L62.46142552734375,15.61127335Z" fill="url(#master_svgr_203_06028)" fill-opacity="1" style="mix-blend-mode:passthrough"/></g><g><path d="M54.539516546875,15.6103711684375C57.006263546875,14.295729908437501,59.994640546875,14.295729908437501,62.461391546875,15.6103711684375L93.315765546875,32.0587176484375C95.065887546875,32.9916476484375,95.030776546875,35.5148506484375,93.253837546875,36.3957616484375L62.832866546875,51.4780346484375L61.785224546875,51.9206886484375C59.661682546875,52.6806986484375,57.339229546875,52.6806986484375,55.215675546875,51.9206886484375L54.168039546875,51.4780346484375L23.747067546875,36.3957616484375C21.970276296875,35.5148506484375,21.935126306875,32.9916476484375,23.685203546875,32.0587176484375L54.539516546875,15.6103711684375ZM60.742954546875,18.8381571484375C59.350658546875,18.0961329484375,57.650253546875,18.0961329484375,56.257953546875,18.8381571484375L27.489020346875,34.1725176484375L55.791419546875,48.2024266484375C57.497180546875,49.0478516484375,59.503730546875,49.0478516484375,61.209495546875,48.2024266484375L89.507415546875,34.1725176484375L60.742954546875,18.8381571484375Z" fill="url(#master_svgs_203_06035)" fill-opacity="1" style="mix-blend-mode:passthrough"/></g><g><path d="M109.6875,80.7519338828125C109.6875,84.3136028828125,107.745789,87.5959358828125,104.621887,89.3065798828125L63.1843891,111.9962918828125C61.725788800000004,112.7953028828125,60.1121621,113.1960298828125,58.5,113.1960298828125L58.5,64.4938048828125C60.0872984,64.4938048828125,61.6770377,64.1067298828125,63.1180873,63.332095882812496L106.974072,39.7617118828125C108.28447700000001,39.0568337828125,109.181957,37.9887723828125,109.6875,36.7862548828125L109.6875,80.7519338828125Z" fill="url(#master_svgt_192_02962)" fill-opacity="1" style="mix-blend-mode:passthrough"/></g></g></g><g><path d="M302.65864953125,16.941824C308.29234653125,11.3083392,317.42149353125,11.3124213,323.05518353125,16.9459057C328.68804153125,22.5794764,328.69266553125,31.70899,323.05938753124997,37.342349999999996L274.01825153125003,86.38327L273.57848153125,86.794426C268.80362553125,90.990135,256.42931553125,94.02771,249.09701013125,95.527565L248.57509233125,95.601631C246.17815193125,95.78511,244.20654833125,93.814766,244.39142062125,91.417702L244.46540325925,90.900085C245.96706223125,83.56958,249.01094963125,71.197506,253.20670033125,66.422729L253.61768433125,65.98295999999999L302.65864953125,16.941824ZM320.82350153125003,19.177501200000002C316.42117353125,14.7752056,309.28972653125,14.773859,304.89033153125,19.1733766L255.84923853125,68.21463800000001C255.11025453125,68.953621,254.26686283125,70.225803,253.38753123125,72.04464C252.52692793125,73.824768,251.71606633125,75.948711,250.97102263125,78.233841C249.48106293125,82.804085,248.32431773125,87.801903,247.56000043125,91.533012C247.49401353125,91.856636,247.59295133125,92.091881,247.74903873125,92.248009C247.90529463125,92.403717,248.14058183125,92.503029,248.46411843125,92.436966C252.19585943125,91.673576,257.19215853125,90.514595,261.76312653125,89.026108C264.04900553125,88.281235,266.17589953125,87.474075,267.95644353125,86.613472C269.77536753125,85.734779,271.04788553125,84.890579,271.78665553125,84.152023L320.82771253125,35.110798C325.22710453125,30.711405,325.22541853125,23.579797,320.82350153125003,19.177501200000002Z" fill="url(#master_svgu_192_03060)" fill-opacity="1" style="mix-blend-mode:passthrough"/></g><g><path d="M302.6597097265625,16.9390216C308.2934037265625,11.3070098,317.4191737265625,11.314248,323.0520247265625,16.947228C328.6853027265625,22.5802507,328.69245172656247,31.705894,323.06044772656253,37.339546L274.0193467265625,86.384712C271.4316007265625,88.972427,265.8999137265625,91.13382,260.2436627265625,92.795692L260.2436627265625,92.795692C260.1495227265625,92.828941,260.0501207265625,92.853767,259.9518577265625,92.881966C259.3500237265625,93.05703,258.7479357265625,93.228317,258.1477037265625,93.391594L258.1394947265625,93.383598C254.8684017265625,94.273239,251.6735186265625,95.002129,249.0981455265625,95.529015C246.2991826265625,96.100929,243.8939103765625,93.695862,244.4664961695625,90.897316C244.9937578465625,88.323502,245.7178858265625,85.129372,246.6076541265625,81.859924L246.6076541265625,81.859924C246.6892109265625,81.541344,246.7818365265625,81.226143,246.8706748265625,80.910522C246.9792499265625,80.52504,247.0820174265625,80.137024,247.1953473265625,79.751549L247.1953473265625,79.751549C248.8628993265625,74.09975399999999,251.0306959265625,68.568325,253.6188221265625,65.980198L302.6597097265625,16.9390216Z" fill="url(#master_svgv_192_02598)" fill-opacity="1" style="mix-blend-mode:passthrough"/></g><g mask="url(#master_svgx_310_12682)"></g></g></svg>