<?xml version="1.0" encoding="UTF-8"?>
<svg xmlns="http://www.w3.org/2000/svg" xmlns:xlink="http://www.w3.org/1999/xlink" fill="none" version="1.1" width="145" height="52" viewBox="0 0 145 52"><g><path d="M18.719999,21.912001C19.223999,21.912001,19.547998,21.732,19.655998,21.336C18.359999,20.112001,16.307999,18.492001,16.307999,18.492001L14.4,20.868L12.311999,20.868C12.528,19.572001,12.599999,18.204,12.671999,16.728001L18.071999,16.728001C18.539999,16.728001,18.935999,16.548,19.007999,16.152C17.783998,14.928001,15.659999,13.308001,15.659999,13.308001L13.787999,15.684002L8.0279999,15.684002C8.3879995,15.036001,8.7479992,14.388,9.0719995,13.668001C9.8639994,13.668001,10.296,13.344002,10.44,12.912001L6.0479999,11.616001C5.4719996,14.892002,4.3199997,18.060001,2.9519999,20.148001L3.4199998,20.508001C4.8959999,19.572001,6.2279997,18.312,7.3439999,16.728001L9.2879992,16.728001C9.2519999,18.204,9.2159996,19.572001,9.0719995,20.868L1.5839999,20.868L1.872,21.912001L8.9279995,21.912001C8.2799997,25.440001,6.5159998,28.284,1.512,30.66L1.9079999,31.200001C7.2359996,29.507999,9.8639994,27.276001,11.231999,24.468C12.995999,25.728001,14.976,27.6,15.768,29.184002C18.9,30.552,20.16,24.720001,11.591999,23.676001C11.771999,23.1,11.952,22.524,12.096,21.912001L18.719999,21.912001ZM11.339999,41.712002L11.339999,37.175999L25.127998,37.175999L25.127998,41.712002L11.339999,41.712002ZM25.127998,31.848L25.127998,36.132L11.339999,36.132L11.339999,31.848L25.127998,31.848ZM24.803999,30.804001L11.591999,30.804001L7.9559999,29.292L7.9559999,45.023998L8.46,45.023998C9.8999996,45.023998,11.339999,44.268002,11.339999,43.944L11.339999,42.756001L25.127998,42.756001L25.127998,44.880001L25.703999,44.880001C26.82,44.880001,28.511999,44.231998,28.547998,43.98L28.547998,32.388C29.231998,32.279999,29.735998,31.956001,29.952,31.667999L26.459999,29.004002L24.803999,30.804001ZM23.471998,25.008001L23.471998,16.512001L29.627998,16.512001L29.627998,25.008001L23.471998,25.008001ZM30.923998,13.704L29.268,15.468L23.651999,15.468L20.231998,14.028002L20.231998,29.076L20.736,29.076C22.103998,29.076,23.471998,28.284,23.471998,27.996L23.471998,26.052002L29.627998,26.052002L29.627998,28.428001L30.167999,28.428001C31.247999,28.428001,32.903999,27.780001,32.939999,27.528L32.939999,17.088001C33.623997,16.944,34.163998,16.656002,34.416,16.368002L30.923998,13.704ZM42.875999,34.764L42.875999,30.875999L49.067997,30.875999L49.067997,34.764L42.875999,34.764ZM49.067997,26.196001L49.067997,29.832001L42.875999,29.832001L42.875999,26.196001L49.067997,26.196001ZM48.708,25.152L43.056,25.152L39.708,23.748001L39.708,44.987999L40.211998,44.987999C41.579998,44.987999,42.875999,44.231998,42.875999,43.872002L42.875999,35.807999L49.067997,35.807999L49.067997,40.380001C49.067997,40.848,48.959999,41.028,48.419998,41.028C47.736,41.028,45.359997,40.848,45.359997,40.848L45.359997,41.388C46.619999,41.568001,47.231998,42,47.663998,42.504002C48.023998,43.043999,48.167999,43.835999,48.239998,44.916C51.911999,44.556,52.379997,43.152,52.379997,40.740002L52.379997,26.771999C53.135998,26.664001,53.675999,26.34,53.891998,26.052002L50.292,23.352001L48.708,25.152ZM48.059998,15.792002C48.995998,16.800001,50.003998,18.132002,50.687996,19.572001C46.619999,19.716002,42.731998,19.824001,40.031998,19.860001C42.66,18.132002,45.647999,15.648001,47.411999,13.704C48.131996,13.740002,48.563999,13.452002,48.708,13.092001L44.171997,11.328001C43.271999,13.596001,40.391998,17.880001,38.231998,19.428001C37.907997,19.608002,37.223999,19.752001,37.223999,19.752001L38.771999,23.532001C39.023998,23.424002,39.275997,23.208,39.528,22.92C44.208,22.02,48.348,21.048,51.011997,20.364C51.335999,21.120001,51.551998,21.876001,51.623997,22.596001C54.683998,25.044001,57.528,18.348001,48.455997,15.504002L48.059998,15.792002ZM63.287998,27.348C68.687996,27.348,70.091995,26.771999,70.091995,25.368C70.091995,24.720001,69.839996,24.360001,68.867996,24L68.759995,20.184L68.327995,20.184C67.823997,21.876001,67.355995,23.388,67.031998,23.856001C66.851997,24.144001,66.599998,24.252001,66.239998,24.252001C65.807999,24.288,64.799995,24.288,63.575996,24.288L60.659996,24.288C59.507996,24.288,59.363998,24.144001,59.363998,23.604L59.363998,19.572001C62.495998,18.816002,65.843994,17.628,67.895996,16.692001C68.867996,16.944,69.515999,16.908001,69.839996,16.548L66.167999,13.812C64.764,15.216002,61.883995,17.34,59.363998,18.744001L59.363998,13.380001C60.084,13.272001,60.444,12.912001,60.479996,12.480001L56.015999,12.048L56.015999,24.360001C56.015999,26.700001,56.663998,27.348,59.831997,27.348L63.287998,27.348ZM69.192001,36.743999L68.759995,36.743999C68.255997,38.580002,67.751999,40.236,67.427994,40.776001C67.211998,41.063999,66.995995,41.172001,66.599998,41.208C66.203995,41.243999,65.123993,41.243999,63.863998,41.243999L60.803997,41.243999C59.687996,41.243999,59.507996,41.063999,59.507996,40.487999L59.507996,36.167999C62.783997,35.304001,66.167999,33.936001,68.220001,32.855999C69.263992,33.108002,69.875992,33,70.199997,32.639999L66.311996,29.940001C64.907997,31.488001,62.099998,33.720001,59.507996,35.268002L59.507996,29.796001C60.227997,29.688,60.587997,29.328001,60.623997,28.896L56.124001,28.464001L56.124001,41.243999C56.124001,43.619999,56.807999,44.34,60.047997,44.34L63.575996,44.34C69.119995,44.34,70.559998,43.728001,70.559998,42.324001C70.559998,41.675999,70.271996,41.279999,69.299995,40.919998L69.192001,36.743999ZM79.127998,11.580002C77.939995,18.348001,75.528,25.440001,73.079994,30.084L73.584,30.372002C74.771996,29.112,75.923996,27.6,76.967995,25.944L76.967995,45.060001L77.543999,45.060001C78.731995,45.060001,80.063995,44.34,80.099998,44.088001L80.099998,22.812C80.748001,22.704,81.107994,22.452002,81.215996,22.128L79.416,21.444C80.567993,19.068001,81.539993,16.476002,82.367996,13.740002C83.195999,13.776001,83.627998,13.488001,83.771996,13.02L79.127998,11.580002ZM85.607994,18.492001C86.435997,18.384001,86.723999,18.024,86.795998,17.592001L82.584,17.160002L82.584,40.200001L83.159996,40.200001C84.275993,40.200001,85.607994,39.515999,85.607994,39.155998L85.607994,18.492001ZM84.959999,45.060001C92.987999,44.088001,99.395996,42,105.192,36.672001C106.056,36.852001,106.452,36.743999,106.73999,36.383999L102.672,34.007999C97.955994,39.911999,91.979996,42.576,84.779999,44.447998L84.959999,45.060001ZM87.371994,34.043999C91.223999,33.108002,95.255997,31.524,98.388,29.544001C99.143997,29.724001,99.467995,29.652,99.719994,29.292L96.227997,26.988001C93.671997,29.652,90.360001,31.92,87.011993,33.431999L87.371994,34.043999ZM87.371994,39.624001C92.699997,38.292,97.775993,36.096001,101.952,32.928001C102.70799,33.108002,103.06799,33.035999,103.356,32.676003L99.683998,30.372002C96.227997,34.188,91.799995,37.032001,87.084,39.012001L87.371994,39.624001ZM100.43999,17.196001C99.467995,19.212002,98.135994,21.012001,96.444,22.704C94.5,21.516001,93.023994,20.040001,91.871994,18.276001C92.087997,17.916,92.304001,17.556002,92.519997,17.196001L100.43999,17.196001ZM102.528,14.316002L100.51199,16.152L93.095993,16.152C93.455994,15.360001,93.851997,14.496,94.211998,13.632002C95.003998,13.668001,95.435997,13.380001,95.579994,12.948002L91.079994,11.544001C90.107994,16.26,88.127998,20.868,86.039993,23.784L86.507996,24.144001C88.271996,22.812,89.927994,21.084002,91.332001,19.068001C92.339996,21.012001,93.419998,22.704,94.860001,24.18C92.375992,26.232,89.351997,27.960001,86.003998,29.256001L86.255997,29.796001C90.215996,28.824001,93.599998,27.420002,96.479996,25.584002C98.567993,27.312,101.34,28.572001,104.93999,29.436001C105.12,27.852001,105.87599,26.916,107.172,26.448002L107.244,26.052002C103.896,25.620001,101.12399,24.936001,98.783997,23.964001C101.05199,22.128,102.852,20.004002,104.18399,17.664001C105.01199,17.592001,105.408,17.52,105.66,17.160002L102.528,14.316002ZM124.23599,34.043999C120.63599,35.411999,116.99999,36.743999,114.26399,37.716L114.26399,26.052002L119.448,26.052002L119.448,27.960001L119.98799,27.960001C121.14,27.960001,122.75999,27.204,122.796,26.916L122.796,16.980001C123.48,16.836,123.98399,16.548,124.2,16.26L120.78,13.632002L119.088,15.396002L109.8,15.396002L110.12399,16.440001L119.448,16.440001L119.448,25.008001L114.73199,25.008001L110.952,23.172001L110.952,37.391998C110.952,38.112,110.772,38.400002,109.69199,38.976002L111.672,43.223999C112.032,43.043999,112.464,42.683998,112.752,42.108002C117.864,39.048,122.03999,36.132,124.38,34.476002L124.23599,34.043999ZM135.972,21.408001C135.43199,25.836,134.172,29.796001,132.04799,33.324001C130.21199,30.624001,128.87999,27.492001,128.01599,23.856001C128.48399,23.064001,128.952,22.272001,129.34799,21.408001L135.972,21.408001ZM142.37999,21.408001C142.884,21.408001,143.24399,21.228001,143.35199,20.832001C141.98399,19.572001,139.71599,17.808001,139.71599,17.808001L137.73599,20.364L129.85199,20.364C130.78799,18.312,131.65199,16.008001,132.37199,13.560001C133.2,13.560001,133.59599,13.200001,133.73999,12.804001L128.62799,11.508001C127.43999,18.924002,124.668,26.124001,121.464,30.768002L121.93199,31.091999C124.02,29.364,125.856,27.276001,127.43999,24.756001C128.15999,28.716,129.13199,32.316002,130.644,35.34C127.87199,39.084,123.84,42.18,118.224,44.556L118.476,45.023998C124.41599,43.332001,128.808,40.883999,132.04799,37.751999C133.95599,40.596001,136.476,42.936001,139.93199,44.627998C140.364,43.007999,141.29999,42.035999,142.92,41.675999L143.028,41.279999C139.248,39.948002,136.25999,38.076,133.99199,35.627998C137.12399,31.740002,138.924,26.988001,139.86,21.408001L142.37999,21.408001Z" fill="#FFFFFF" fill-opacity="1"/></g></svg>