<?xml version="1.0" encoding="UTF-8"?>
<svg xmlns="http://www.w3.org/2000/svg" xmlns:xlink="http://www.w3.org/1999/xlink" fill="none" version="1.1" width="285" height="245" viewBox="0 0 285 245"><defs><linearGradient x1="0.5" y1="0" x2="0.5" y2="1" id="master_svg0_192_03054"><stop offset="0%" stop-color="#575757" stop-opacity="1"/><stop offset="100%" stop-color="#151515" stop-opacity="1"/></linearGradient><linearGradient x1="0.5" y1="0" x2="0.5" y2="1" id="master_svg1_192_03054"><stop offset="0%" stop-color="#575757" stop-opacity="1"/><stop offset="100%" stop-color="#151515" stop-opacity="1"/></linearGradient><linearGradient x1="0.5" y1="0" x2="0.5" y2="1" id="master_svg2_192_02598"><stop offset="0%" stop-color="#E3E3E5" stop-opacity="0.6000000238418579"/><stop offset="100%" stop-color="#BBBBC0" stop-opacity="0.6000000238418579"/></linearGradient><linearGradient x1="0.5" y1="0" x2="0.5" y2="0.5791428685188293" id="master_svg3_sa109_4184"><stop offset="0%" stop-color="#FFFFFF" stop-opacity="1"/><stop offset="100%" stop-color="#FFFFFF" stop-opacity="0"/></linearGradient><linearGradient x1="0.5" y1="0" x2="0.5" y2="1" id="master_svg4_192_03054"><stop offset="0%" stop-color="#575757" stop-opacity="1"/><stop offset="100%" stop-color="#151515" stop-opacity="1"/></linearGradient><linearGradient x1="0.4999750256538391" y1="-0.12466883659362793" x2="0.5000101531744624" y2="0.9999999996828792" id="master_svg5_192_02607"><stop offset="0%" stop-color="#E3E3E5" stop-opacity="0.6000000238418579"/><stop offset="100%" stop-color="#BBBBC0" stop-opacity="0.6000000238418579"/></linearGradient><linearGradient x1="0.5" y1="0" x2="0.4999805898910614" y2="0.9554253814550338" id="master_svg6_203_05991"><stop offset="0%" stop-color="#FFFFFF" stop-opacity="1"/><stop offset="100%" stop-color="#FFFFFF" stop-opacity="0"/></linearGradient><linearGradient x1="0.4999750256538391" y1="-0.12466883659362793" x2="0.500010191657958" y2="0.9999999996813286" id="master_svg7_192_02607"><stop offset="0%" stop-color="#E3E3E5" stop-opacity="0.6000000238418579"/><stop offset="100%" stop-color="#BBBBC0" stop-opacity="0.6000000238418579"/></linearGradient><linearGradient x1="0.5" y1="0" x2="0.4999805686280405" y2="0.9554253814543763" id="master_svg8_203_05991"><stop offset="0%" stop-color="#FFFFFF" stop-opacity="1"/><stop offset="100%" stop-color="#FFFFFF" stop-opacity="0"/></linearGradient><clipPath id="master_svg9_310_12613"><rect x="84" y="0" width="125" height="125" rx="0"/></clipPath><mask id="master_svga_310_12617" style="mask-type:alpha" maskUnits="objectBoundingBox"><g><g><rect x="84" y="0" width="520.8333740234375" height="520.8333740234375" rx="0" fill="#FFFFFF" fill-opacity="1" style="mix-blend-mode:passthrough"/></g><g><path d="M150.732315421875,16.6787108C148.096378421875,15.273762229999999,144.903663421875,15.273762229999999,142.267726421875,16.6787108L109.301739721875,34.252148C107.432051241875,35.248813999999996,107.471738011875,37.942202,109.370071521875,38.883347L141.872936421875,54.997929C144.78856242187499,56.443241,148.211479421875,56.443241,151.127105421875,54.997929L183.630226421875,38.883347C185.528152421875,37.942202,185.568252421875,35.248813999999996,183.698455421875,34.252148L150.732315421875,16.6787108Z" fill="#000000" fill-opacity="1" style="mix-blend-mode:passthrough"/></g></g></mask><linearGradient x1="0.5" y1="0" x2="0.5" y2="1" id="master_svgb_192_03054"><stop offset="0%" stop-color="#575757" stop-opacity="1"/><stop offset="100%" stop-color="#151515" stop-opacity="1"/></linearGradient><linearGradient x1="0.5" y1="0" x2="0.4999978321865843" y2="1.0299025773968993" id="master_svgc_203_06028"><stop offset="0%" stop-color="#E3E3E5" stop-opacity="0.6000000238418579"/><stop offset="100%" stop-color="#BBBBC0" stop-opacity="0.6000000238418579"/></linearGradient><mask id="master_svgd_310_12623" style="mask-type:alpha" maskUnits="objectBoundingBox"><g><g><path d="M150.73231160717773,16.67870889265137C148.09637460717772,15.273760322651366,144.90365960717773,15.273760322651366,142.26772260717775,16.67870889265137L109.30173590717773,34.252146092651365C107.43204742717774,35.24881209265136,107.47173419717774,37.94220009265137,109.37006770717774,38.88334509265137L141.87293260717775,54.997927092651366C144.78855860717772,56.44323909265137,148.21147560717773,56.44323909265137,151.12710160717774,54.997927092651366L183.63022260717773,38.88334509265137C185.52814860717774,37.94220009265137,185.56824860717774,35.24881209265136,183.69845160717773,34.252146092651365L150.73231160717773,16.67870889265137Z" fill="url(#master_svgc_203_06028)" fill-opacity="1" style="mix-blend-mode:passthrough"/></g></g></mask><filter id="master_svge_310_12622" filterUnits="objectBoundingBox" color-interpolation-filters="sRGB" x="-0.07314285714285715" y="-0.06844872423044993" width="1.1462857142857144" height="1.1368974484608998"><feFlood flood-opacity="0" result="BackgroundImageFix"/><feBlend mode="normal" in="SourceGraphic" in2="BackgroundImageFix" result="shape"/><feGaussianBlur stdDeviation="2" result="effect1_foregroundBlur"/></filter><linearGradient x1="0.5" y1="0" x2="0.5" y2="1" id="master_svgf_192_03054"><stop offset="0%" stop-color="#575757" stop-opacity="1"/><stop offset="100%" stop-color="#151515" stop-opacity="1"/></linearGradient><linearGradient x1="0.5" y1="0" x2="0.4999978321865843" y2="1.0299025773968993" id="master_svgg_203_06028"><stop offset="0%" stop-color="#E3E3E5" stop-opacity="0.6000000238418579"/><stop offset="100%" stop-color="#BBBBC0" stop-opacity="0.6000000238418579"/></linearGradient><linearGradient x1="0.5" y1="0" x2="0.49997301074276446" y2="0.5790991774022085" id="master_svgh_203_06035"><stop offset="0%" stop-color="#FFFFFF" stop-opacity="1"/><stop offset="100%" stop-color="#FFFFFF" stop-opacity="0"/></linearGradient><linearGradient x1="0.5" y1="0" x2="0.5" y2="1" id="master_svgi_192_02962"><stop offset="0%" stop-color="#151515" stop-opacity="1"/><stop offset="100%" stop-color="#575757" stop-opacity="1"/></linearGradient></defs><g><g><g transform="matrix(0.8258045315742493,-0.5639564394950867,0.8546912670135498,0.5191366076469421,-81.53787806740183,142.09670835021916)" style="opacity:0.75;"><path d="M145.35910034179688,146.7382618232422C145.35910034179688,139.13835182324217,145.35910034179688,135.3383618232422,146.83775644179687,132.4355569232422C148.13845394179688,129.8821802232422,150.21387104179686,127.80623272324219,152.7665953417969,126.50520272324219C155.66865934179688,125.02616882324219,159.46767834179687,125.02616882324219,167.06564734179688,125.02616882324219L177.91892234179687,125.02616882324219C185.51689134179688,125.02616882324219,189.31588334179688,125.02616882324219,192.2181093417969,126.50520272324219C194.77066834179686,127.80623272324219,196.84601234179686,129.8821802232422,198.14670934179688,132.4355569232422C199.62547334179686,135.3383618232422,199.62547334179686,139.13835182324217,199.62547334179686,146.7382618232422L199.62547334179686,157.59431082324218C199.62547334179686,165.19422182324217,199.62547334179686,168.99418282324217,198.14670934179688,171.89715182324218C196.84601234179686,174.4503628232422,194.77066834179686,176.52624082324218,192.2181093417969,177.8272708232422C189.31588334179688,179.3064038232422,185.51689134179688,179.3064038232422,177.91892234179687,179.3064038232422L167.06564734179688,179.3064038232422C159.46767834179687,179.3064038232422,155.66865934179688,179.3064038232422,152.7665953417969,177.8272708232422C150.21387104179686,176.52624082324218,148.13845394179688,174.4503628232422,146.83775644179687,171.89715182324218C145.35910034179688,168.99418282324217,145.35910034179688,165.19422182324217,145.35910034179688,157.59431082324218L145.35910034179688,146.7382618232422Z" fill="url(#master_svg0_192_03054)" fill-opacity="1" style="mix-blend-mode:passthrough"/></g><g transform="matrix(0.8141025900840759,-0.5807210803031921,0.8651185035705566,0.5015674829483032,-155.1262610601716,200.7366332768588)" style="opacity:0.75;"><path d="M161.90408325195312,235.8163855161133C161.90408325195312,228.2157565161133,161.90408325195312,224.41540851611327,163.38258995195312,221.51232961611328C164.68315625195314,218.95871111611328,166.7583637519531,216.8825679161133,169.31083055195313,215.58141521611327C172.21260025195312,214.10224151611328,176.01123625195314,214.10224151611328,183.60843825195312,214.10224151611328L194.46061725195312,214.10224151611328C202.05781925195313,214.10224151611328,205.85643025195313,214.10224151611328,208.75836225195312,215.58141521611327C211.31066125195312,216.8825679161133,213.38579525195314,218.95871111611328,214.68636325195314,221.51232961611328C216.16497425195314,224.41540851611327,216.16497425195314,228.2157565161133,216.16497425195314,235.8163855161133L216.16497425195314,246.67345851611327C216.16497425195314,254.2740895161133,216.16497425195314,258.0744095161133,214.68636325195314,260.97765351611326C213.38579525195314,263.53110151611327,211.31066125195312,265.60717751611327,208.75836225195312,266.9083285161133C205.85643025195313,268.3876035161133,202.05781925195313,268.3876035161133,194.46061725195312,268.3876035161133L183.60843825195312,268.3876035161133C176.01123625195314,268.3876035161133,172.21260025195312,268.3876035161133,169.31083055195313,266.9083285161133C166.7583637519531,265.60717751611327,164.68315625195314,263.53110151611327,163.38258995195312,260.97765351611326C161.90408325195312,258.0744095161133,161.90408325195312,254.2740895161133,161.90408325195312,246.67345851611327L161.90408325195312,235.8163855161133Z" fill="url(#master_svg1_192_03054)" fill-opacity="1" style="mix-blend-mode:passthrough"/></g><g transform="matrix(0.8219985365867615,-0.5694896578788757,0.8581563830375671,0.5133883357048035,-104.32397477642871,189.09256926370153)" style="opacity:0.75;"><g><path d="M248.07677482421875,188.90964738720703Q248.07677482421875,189.57592038720702,248.04408982421876,190.24139038720702Q248.01140982421876,190.90686038720702,247.94612882421876,191.56992738720703Q247.88083682421876,192.23299038720702,247.78310382421876,192.89205138720703Q247.68537182421875,193.55111338720704,247.55543182421874,194.20458238720704Q247.42549182421874,194.85805538720703,247.26364882421876,195.50436038720704Q247.10181082421875,196.15066538720703,246.90846282421876,196.78825338720702Q246.71511882421873,197.42583438720703,246.49072982421876,198.05315738720702Q246.26633482421875,198.68048138720704,246.01144382421876,199.29603938720703Q245.75655382421874,199.91159838720702,245.47177482421876,200.51390038720703Q245.18699982421876,201.11620738720703,244.87302382421876,201.70380738720704Q244.55904382421875,202.29140438720702,244.21661382421874,202.86288438720703Q243.87419082421874,203.43436438720704,243.50415082421875,203.98835338720704Q243.13410582421875,204.54233938720702,242.73733482421875,205.07749938720704Q242.34056482421875,205.61265538720704,241.91802582421874,206.12769338720705Q241.49547982421876,206.64272738720703,241.04818382421874,207.13640238720703Q240.60088382421876,207.63007738720702,240.12990582421875,208.10120438720702Q239.65892782421875,208.57233038720705,239.16540882421876,209.01977538720703Q238.67188982421874,209.46721638720703,238.15702482421875,209.88990038720704Q237.64215082421876,210.31257638720703,237.10716582421875,210.70947238720703Q236.57217782421876,211.10636938720702,236.01837182421875,211.47652838720703Q235.46456182421875,211.84668738720703,234.89326082421874,212.18922038720703Q234.32196382421876,212.53175338720703,233.73455382421875,212.84583238720703Q233.14714082421875,213.15991238720704,232.54502882421875,213.44477838720704Q231.94291682421874,213.72964438720703,231.32755682421876,213.98461938720703Q230.71219682421875,214.23958938720705,230.08507582421873,214.46405438720703Q229.45795082421876,214.68851438720702,228.82057182421875,214.88192738720704Q228.18318982421874,215.07533238720703,227.53708982421875,215.23722838720704Q226.89099082421876,215.39911638720702,226.23772782421875,215.52909838720703Q225.58446482421874,215.65908038720704,224.92561482421874,215.75684738720702Q224.26676582421874,215.85461038720703,223.60391382421875,215.91991838720702Q222.94105882421874,215.98522138720705,222.27580282421874,216.01791338720705Q221.61054382421875,216.05060538720704,220.94448482421876,216.05060938720703Q220.27842282421875,216.05060538720704,219.61316682421875,216.01791338720705Q218.94790882421876,215.98522138720705,218.28505682421874,215.91991838720702Q217.62220182421873,215.85461038720703,216.96334982421874,215.75684338720703Q216.30449882421874,215.65908038720704,215.65123782421875,215.52909838720703Q214.99797482421874,215.39911638720702,214.35187482421875,215.23722438720702Q213.70577582421876,215.07533238720703,213.06839582421875,214.88192738720704Q212.43101482421875,214.68851438720702,211.80388982421874,214.46405038720704Q211.17676582421876,214.23958938720705,210.56140482421876,213.98461938720703Q209.94604482421875,213.72964438720703,209.34393482421876,213.44477438720702Q208.74182282421876,213.15991238720704,208.15441082421876,212.84583238720703Q207.56699782421876,212.53175338720703,206.99569782421875,212.18922038720703Q206.42439982421874,211.84668738720703,205.87059082421874,211.47652838720703Q205.31678182421876,211.10636938720702,204.78179782421876,210.70946838720704Q204.24681282421875,210.31257238720704,203.73194222421876,209.88989238720703Q203.21706962421874,209.46720838720702,202.72355172421874,209.01976738720703Q202.23003392421876,208.57232638720703,201.75905802421875,208.10120038720703Q201.28808212421876,207.63007338720703,200.84078312421875,207.13639838720704Q200.39348462421876,206.64272338720704,199.97094062421874,206.12768938720703Q199.54839612421875,205.61264838720703,199.15162472421875,205.07749138720703Q198.75485272421875,204.54233538720703,198.38480952421875,203.98835038720702Q198.01476622421876,203.43436438720704,197.67234282421876,202.86288438720703Q197.32991932421874,202.29140438720702,197.01594092421874,201.70380438720701Q196.70196202421874,201.11620338720704,196.41718462421875,200.51390038720703Q196.13240722421875,199.91159838720702,195.87751702421875,199.29603938720703Q195.62262682421874,198.68048138720704,195.39823792421876,198.05316138720704Q195.17384902421875,197.42583438720703,194.98050192421874,196.78825338720702Q194.78715479421874,196.15066938720702,194.62531536421875,195.50436438720703Q194.46347594421874,194.85805538720703,194.33353406421875,194.20458638720703Q194.20359218421876,193.55111538720703,194.10586085421875,192.89205138720703Q194.00812950421874,192.23299038720702,193.94284419421874,191.56992738720703Q193.87755887221874,190.90686038720702,193.84487684821875,190.24139038720702Q193.81219482421875,189.57592038720702,193.81219482421875,188.90964738720703Q193.81219482421875,188.24337338720704,193.84487684821875,187.57790338720702Q193.87755887221874,186.91243138720702,193.94284419421874,186.24936638720703Q194.00812950421874,185.58630038720702,194.10586083421876,184.92723838720704Q194.20359218421876,184.26817738720703,194.33353406421875,183.61470638720704Q194.46347594421874,182.96123538720704,194.62531542421874,182.31493038720703Q194.78715479421874,181.66862438720705,194.98050192421874,181.03104038720704Q195.17384902421875,180.39345538720704,195.39823792421876,179.76613038720703Q195.62262682421874,179.13880538720704,195.87751702421875,178.52324838720702Q196.13240722421875,177.90769238720702,196.41718482421874,177.30538938720704Q196.70196202421874,176.70308538720704,197.01594092421874,176.11548538720703Q197.32991932421874,175.52788338720703,197.67234282421876,174.95640138720702Q198.01476622421876,174.38492038720705,198.38480952421875,173.83093438720704Q198.75485272421875,173.27694938720703,199.15162472421875,172.74179338720703Q199.54839612421875,172.20663838720702,199.97094102421875,171.69160268720702Q200.39348502421876,171.17656608720702,200.84078362421874,170.68288998720703Q201.28808212421876,170.18921378720702,201.75905802421875,169.71808768720703Q202.23003392421876,169.24696158720704,202.72355172421874,168.79951958720704Q203.21706962421874,168.35207798720702,203.73194222421876,167.92939848720704Q204.24681282421875,167.50671958720704,204.78179782421876,167.10982038720704Q205.31678182421876,166.71292208720703,205.87058982421874,166.34276058720704Q206.42439882421874,165.97259898720702,206.99569682421875,165.63006618720704Q207.56699682421876,165.28753328720703,208.15441082421876,164.97345448720702Q208.74182282421876,164.65937538720704,209.34393382421874,164.37450698720704Q209.94604482421875,164.08963848720703,210.56140482421876,163.83466668720703Q211.17676582421876,163.57969498720703,211.80388982421874,163.35523438720702Q212.43101482421875,163.13077378720703,213.06839582421875,162.93736488720702Q213.70577582421876,162.74395608720704,214.35187482421875,162.58206486720704Q214.99797482421874,162.42017370720703,215.65123582421876,162.29019027720702Q216.30449682421875,162.16020682720702,216.96334982421874,162.06244423720702Q217.62219982421874,161.96468171720704,218.28505482421875,161.89937552720704Q218.94790682421876,161.83406933420704,219.61316682421875,161.80137686020703Q220.27842282421875,161.76868438720703,220.94448482421876,161.76868438720703Q221.61054382421875,161.76868438720703,222.27580082421875,161.80137686020703Q222.94105882421874,161.83406933420704,223.60391382421875,161.89937552720704Q224.26676582421874,161.96468171720704,224.92561682421876,162.06244426720704Q225.58446482421874,162.16020682720702,226.23772782421875,162.29019027720702Q226.89099082421876,162.42017370720703,227.53709382421874,162.58206486720704Q228.18318982421874,162.74395608720704,228.82057182421875,162.93736488720702Q229.45795082421876,163.13077378720703,230.08507582421873,163.35523438720702Q230.71219682421875,163.57969498720703,231.32755682421876,163.83466668720703Q231.94291682421874,164.08963848720703,232.54502882421875,164.37450698720704Q233.14714082421875,164.65937538720704,233.73455082421876,164.97345448720702Q234.32196082421876,165.28753328720703,234.89325682421875,165.63006588720702Q235.46455782421876,165.97259898720702,236.01836782421876,166.34276058720704Q236.57217382421874,166.71292208720703,237.10716282421873,167.10982088720704Q237.64214682421874,167.50671958720704,238.15702082421876,167.92939898720704Q238.67188982421874,168.35207848720702,239.16540882421876,168.79951958720704Q239.65892782421875,169.24696158720704,240.12990582421875,169.71808768720703Q240.60088382421876,170.18921378720702,241.04817982421875,170.68288998720703Q241.49547982421876,171.17656608720702,241.91802582421874,171.69160268720702Q242.34056882421874,172.20663838720702,242.73733882421874,172.74179338720703Q243.13410982421874,173.27694938720703,243.50415382421875,173.83093438720704Q243.87419882421875,174.38492038720705,244.21662182421875,174.95640138720702Q244.55904382421875,175.52788338720703,244.87302382421876,176.11548538720703Q245.18699982421876,176.70308538720704,245.47177882421875,177.30538838720702Q245.75655382421874,177.90769238720702,246.01144382421876,178.52324838720702Q246.26633482421875,179.13880538720704,246.49072682421874,179.76613038720703Q246.71511882421873,180.39345538720704,246.90846282421876,181.03104038720704Q247.10180682421876,181.66862438720705,247.26364482421874,182.31493038720703Q247.42548382421876,182.96123538720704,247.55542782421875,183.61470638720704Q247.68537182421875,184.26817738720703,247.78310382421876,184.92723838720704Q247.88083682421876,185.58630038720702,247.94612482421874,186.24936638720703Q248.01140582421874,186.91243138720702,248.04408982421876,187.57790338720702Q248.07677482421875,188.24337338720704,248.07677482421875,188.90964738720703Z" fill="url(#master_svg2_192_02598)" fill-opacity="1" style="mix-blend-mode:passthrough"/></g><g><path d="M220.94448482421876,161.76868438720703C235.92925982421875,161.76868438720703,248.07677482421875,173.92008138720703,248.07677482421875,188.90964738720703C248.07677482421875,203.89921138720703,235.92925982421875,216.05060938720703,220.94448482421876,216.05060938720703C205.95970782421875,216.05060938720703,193.81219482421875,203.89921138720703,193.81219482421875,188.90964738720703C193.81219482421875,173.92008138720703,205.95970782421875,161.76868438720703,220.94448482421876,161.76868438720703ZM220.94448482421876,164.67664508720702C207.56516182421876,164.67664508720702,196.71922612421875,175.52604738720703,196.71922612421875,188.90964738720703C196.71922612421875,202.29324338720704,207.56516182421876,213.14265038720703,220.94448482421876,213.14265038720703C234.32380682421876,213.14265038720703,245.16974282421876,202.29324338720704,245.16974282421876,188.90964738720703C245.16974282421876,175.52604738720703,234.32380682421876,164.67664508720702,220.94448482421876,164.67664508720702Z" fill="url(#master_svg3_sa109_4184)" fill-opacity="1" style="mix-blend-mode:passthrough"/></g></g><g transform="matrix(0.8219985365867615,-0.5694896578788757,0.8581563830375671,0.5133883357048035,-138.82282908247134,78.71852874050319)" style="opacity:0.75;"><g><path d="M54.26458,188.90964738720703Q54.26458,189.57592038720702,54.231895,190.24139038720702Q54.199215,190.90686038720702,54.133934,191.56992738720703Q54.068642,192.23299038720702,53.970909,192.89205138720703Q53.873177,193.55111338720704,53.743237,194.20458238720704Q53.613297,194.85805538720703,53.451454,195.50436038720704Q53.289616,196.15066538720703,53.096268,196.78825338720702Q52.902924,197.42583438720703,52.678535,198.05315738720702Q52.45414,198.68048138720704,52.199249,199.29603938720703Q51.944359,199.91159838720702,51.65958,200.51390038720703Q51.374805,201.11620738720703,51.060829,201.70380738720704Q50.746849,202.29140438720702,50.404419,202.86288438720703Q50.061996,203.43436438720704,49.691956,203.98835338720704Q49.321911,204.54233938720702,48.92514,205.07749938720704Q48.52837,205.61265538720704,48.105831,206.12769338720705Q47.683285,206.64272738720703,47.235989,207.13640238720703Q46.788689,207.63007738720702,46.317711,208.10120438720702Q45.846733,208.57233038720705,45.353214,209.01977538720703Q44.859695,209.46721638720703,44.34483,209.88990038720704Q43.829956,210.31257638720703,43.294971,210.70947238720703Q42.759983,211.10636938720702,42.206177,211.47652838720703Q41.652367,211.84668738720703,41.081066,212.18922038720703Q40.509769,212.53175338720703,39.922359,212.84583238720703Q39.334946,213.15991238720704,38.732834,213.44477838720704Q38.130722,213.72964438720703,37.515362,213.98461938720703Q36.900002,214.23958938720705,36.272881,214.46405438720703Q35.645756,214.68851438720702,35.008377,214.88192738720704Q34.370995,215.07533238720703,33.724895,215.23722838720704Q33.078796,215.39911638720702,32.425533,215.52909838720703Q31.77227,215.65908038720704,31.11342,215.75684738720702Q30.454571,215.85461038720703,29.791719,215.91991838720702Q29.128864,215.98522138720705,28.463608,216.01791338720705Q27.798349,216.05060538720704,27.13229,216.05060938720703Q26.466228,216.05060538720704,25.800972,216.01791338720705Q25.135714,215.98522138720705,24.472862,215.91991838720702Q23.810007,215.85461038720703,23.151155,215.75684338720703Q22.492304,215.65908038720704,21.839043,215.52909838720703Q21.18578,215.39911638720702,20.53968,215.23722438720702Q19.893581,215.07533238720703,19.256201,214.88192738720704Q18.61882,214.68851438720702,17.991695,214.46405038720704Q17.364571,214.23958938720705,16.74921,213.98461938720703Q16.13385,213.72964438720703,15.53174,213.44477438720702Q14.929628,213.15991238720704,14.342216,212.84583238720703Q13.754803,212.53175338720703,13.183503,212.18922038720703Q12.612205,211.84668738720703,12.058396,211.47652838720703Q11.504587,211.10636938720702,10.969603,210.70946838720704Q10.434618,210.31257238720704,9.9197474,209.88989238720703Q9.4048748,209.46720838720702,8.9113569,209.01976738720703Q8.4178391,208.57232638720703,7.9468632,208.10120038720703Q7.4758873,207.63007338720703,7.0285883,207.13639838720704Q6.5812898,206.64272338720704,6.1587458,206.12768938720703Q5.7362013,205.61264838720703,5.3394299,205.07749138720703Q4.9426579,204.54233538720703,4.5726147,203.98835038720702Q4.2025714,203.43436438720704,3.860148,202.86288438720703Q3.5177245,202.29140438720702,3.2037461,201.70380438720701Q2.8897672,201.11620338720704,2.6049898,200.51390038720703Q2.3202124,199.91159838720702,2.0653222,199.29603938720703Q1.810432,198.68048138720704,1.5860431,198.05316138720704Q1.3616542,197.42583438720703,1.1683071,196.78825338720702Q0.97495997,196.15066938720702,0.81312054,195.50436438720703Q0.65128112,194.85805538720703,0.52133924,194.20458638720703Q0.39139736,193.55111538720703,0.29366603,192.89205138720703Q0.19593468,192.23299038720702,0.13064937,191.56992738720703Q0.065364048,190.90686038720702,0.032682024,190.24139038720702Q0,189.57592038720702,0,188.90964738720703Q0,188.24337338720704,0.032682024,187.57790338720702Q0.065364048,186.91243138720702,0.13064937,186.24936638720703Q0.19593468,185.58630038720702,0.29366601,184.92723838720704Q0.39139736,184.26817738720703,0.52133924,183.61470638720704Q0.65128112,182.96123538720704,0.8131206,182.31493038720703Q0.97495997,181.66862438720705,1.1683071,181.03104038720704Q1.3616542,180.39345538720704,1.5860431,179.76613038720703Q1.810432,179.13880538720704,2.0653222,178.52324838720702Q2.3202124,177.90769238720702,2.60499,177.30538938720704Q2.8897672,176.70308538720704,3.2037461,176.11548538720703Q3.5177245,175.52788338720703,3.860148,174.95640138720702Q4.2025714,174.38492038720705,4.5726147,173.83093438720704Q4.9426579,173.27694938720703,5.3394299,172.74179338720703Q5.7362013,172.20663838720702,6.1587462,171.69160268720702Q6.5812902,171.17656608720702,7.0285888,170.68288998720703Q7.4758873,170.18921378720702,7.9468632,169.71808768720703Q8.4178391,169.24696158720704,8.9113569,168.79951958720704Q9.4048748,168.35207798720702,9.9197474,167.92939848720704Q10.434618,167.50671958720704,10.969603,167.10982038720704Q11.504587,166.71292208720703,12.058395,166.34276058720704Q12.612204,165.97259898720702,13.183502,165.63006618720704Q13.754802,165.28753328720703,14.342216,164.97345448720702Q14.929628,164.65937538720704,15.531739,164.37450698720704Q16.13385,164.08963848720703,16.74921,163.83466668720703Q17.364571,163.57969498720703,17.991695,163.35523438720702Q18.61882,163.13077378720703,19.256201,162.93736488720702Q19.893581,162.74395608720704,20.53968,162.58206486720704Q21.18578,162.42017370720703,21.839041,162.29019027720702Q22.492302,162.16020682720702,23.151155,162.06244423720702Q23.810005,161.96468171720704,24.47286,161.89937552720704Q25.135712,161.83406933420704,25.800972,161.80137686020703Q26.466228,161.76868438720703,27.13229,161.76868438720703Q27.798349,161.76868438720703,28.463606,161.80137686020703Q29.128864,161.83406933420704,29.791719,161.89937552720704Q30.454571,161.96468171720704,31.113422,162.06244426720704Q31.77227,162.16020682720702,32.425533,162.29019027720702Q33.078796,162.42017370720703,33.724899,162.58206486720704Q34.370995,162.74395608720704,35.008377,162.93736488720702Q35.645756,163.13077378720703,36.272881,163.35523438720702Q36.900002,163.57969498720703,37.515362,163.83466668720703Q38.130722,164.08963848720703,38.732834,164.37450698720704Q39.334946,164.65937538720704,39.922356,164.97345448720702Q40.509766,165.28753328720703,41.081062,165.63006588720702Q41.652363,165.97259898720702,42.206173,166.34276058720704Q42.759979,166.71292208720703,43.294968,167.10982088720704Q43.829952,167.50671958720704,44.344826,167.92939898720704Q44.859695,168.35207848720702,45.353214,168.79951958720704Q45.846733,169.24696158720704,46.317711,169.71808768720703Q46.788689,170.18921378720702,47.235985,170.68288998720703Q47.683285,171.17656608720702,48.105831,171.69160268720702Q48.528374,172.20663838720702,48.925144,172.74179338720703Q49.321915,173.27694938720703,49.691959,173.83093438720704Q50.062004,174.38492038720705,50.404427,174.95640138720702Q50.746849,175.52788338720703,51.060829,176.11548538720703Q51.374805,176.70308538720704,51.659584,177.30538838720702Q51.944359,177.90769238720702,52.199249,178.52324838720702Q52.45414,179.13880538720704,52.678532,179.76613038720703Q52.902924,180.39345538720704,53.096268,181.03104038720704Q53.289612,181.66862438720705,53.45145,182.31493038720703Q53.613289,182.96123538720704,53.743233,183.61470638720704Q53.873177,184.26817738720703,53.970909,184.92723838720704Q54.068642,185.58630038720702,54.13393,186.24936638720703Q54.199211,186.91243138720702,54.231895,187.57790338720702Q54.26458,188.24337338720704,54.26458,188.90964738720703Z" fill="url(#master_svg4_192_03054)" fill-opacity="1" style="mix-blend-mode:passthrough"/></g></g><g transform="matrix(0.8372882008552551,-0.5467618703842163,0.8437785506248474,0.5366914868354797,-174.73835426087362,126.0161881942845)" style="opacity:0.75;"><g><path d="M89.37691475195312,225.8908939053711C85.96445475195313,220.4615292053711,84.25785875195312,217.7467294053711,82.07340575195312,216.81576293537108C80.16542775195313,216.0026851553711,78.00599875195313,216.0026851553711,76.09801475195313,216.81576293537108C73.91318675195312,217.7467691053711,72.20695875195312,220.4615292053711,68.79450975195313,225.8912716053711L52.76608655195312,251.39310050537108C48.978524851953125,257.4195325053711,47.08472523195312,260.4323655053711,47.28576313095313,262.9191135053711C47.46097369195312,265.0864445053711,48.568333051953125,267.0731395053711,50.32378435195312,268.3696825053711C52.33769035195313,269.8570555053711,55.910863851953124,269.8570555053711,63.05728875195312,269.8570555053711L79.08571475195313,269.8570555053711L95.11413575195313,269.8570555053711C102.26063575195312,269.8570555053711,105.83388475195312,269.8570555053711,107.84767875195313,268.3696825053711C109.60320275195312,267.0731395053711,110.71059375195313,265.0864445053711,110.88581075195313,262.9191135053711C111.08680675195313,260.4323655053711,109.19285575195312,257.4195325053711,105.40533875195312,251.39310050537108L89.37691475195312,225.8908939053711Z" fill="url(#master_svg5_192_02607)" fill-opacity="1" style="mix-blend-mode:passthrough"/></g><g><path d="M76.09612005802917,216.81848705629093C78.00409805802917,216.00540928629093,80.16579705802917,216.00544704629095,82.07378105802917,216.81848705629093C84.25747405802917,217.75005759629093,85.96521105802918,220.46466599629093,89.37691205802918,225.89294019629094L105.40609005802918,251.39288819629093C107.32128205802917,254.44003819629094,108.75179405802918,256.71710319629096,109.67259305802918,258.54503019629095L106.44673605802917,258.54503019629095C105.61580705802918,257.07159919629095,104.48262505802917,255.25915319629092,102.99522805802917,252.89195019629094L86.96605005802917,227.39200719629093C85.23061405802918,224.63108409629095,84.02841305802917,222.72419939629094,82.99952005802918,221.37787159629093C81.97024605802918,220.03089989629095,81.36080205802918,219.58947649629093,80.95159605802917,219.41490449629094C79.75962305802918,218.90763609629093,78.40989205802917,218.90725839629093,77.21830405802918,219.41490449629094C76.80909805802918,219.58936129629095,76.20041005802918,220.02976719629095,75.16999705802917,221.37787159629093C74.14148805802918,222.72423899629095,72.94269205802917,224.63070739629094,71.20726105802918,227.39200719629093L55.178308758029175,252.89195019629094C53.690832858029175,255.25877119629092,52.55768605802918,257.07159919629095,51.726569458029175,258.54503019629095L48.504502058029175,258.54503019629095C48.969457178029174,257.62182419629096,49.560282858029176,256.58247919629093,50.28221435802917,255.38888319629095L52.767296058029174,251.39288819629093L68.79260705802918,225.89294019629094C71.99116405802917,220.80400239629094,73.69283605802917,218.09942439629094,75.69222105802918,217.01368677629094L76.09612005802917,216.81848705629093Z" fill="url(#master_svg6_203_05991)" fill-opacity="1" style="mix-blend-mode:passthrough"/></g></g><g transform="matrix(-0.8671585321426392,0.49803221225738525,-0.8117232322692871,-0.5840423107147217,401.80938865500684,111.278057825637)" style="opacity:0.75;"><g><path d="M204.57043846972655,131.00799368769532C201.15706246972655,125.58014488769531,199.45000846972655,122.86610338769532,197.26496846972657,121.93539702769532C195.35647946972657,121.12254631769531,193.19647246972656,121.12254631769531,191.28797746972657,121.93539702769532C189.10256346972656,122.8661430876953,187.39587746972657,125.58014488769531,183.98251546972656,131.00837038769532L167.94979526972656,156.50307888769532C164.16121816972657,162.52782488769532,162.26691093972656,165.5398178876953,162.46800273272657,168.0258708876953C162.64326026972657,170.19259688769532,163.75091646972658,172.17873788769532,165.50683836972655,173.47491488769532C167.52128406972656,174.9618718876953,171.09541606972655,174.9618718876953,178.24375646972658,174.9618718876953L194.27647946972655,174.9618718876953L210.30919646972657,174.9618718876953C217.45761446972656,174.9618718876953,221.03181846972655,174.9618718876953,223.04615446972656,173.47491488769532C224.80214646972655,172.17873788769532,225.90983546972654,170.19259688769532,226.08510246972656,168.0258708876953C226.28614846972656,165.5398178876953,224.39169346972656,162.52782488769532,220.60315746972657,156.50307888769532L204.57043846972655,131.00799368769532Z" fill="url(#master_svg7_192_02607)" fill-opacity="1" style="mix-blend-mode:passthrough"/></g><g><path d="M191.28608246237184,121.93812108861516C193.19457246237184,121.12527044861515,195.35685146237182,121.12530820861515,197.26534646237184,121.93812108861516C199.44962646237184,122.86943147861516,201.15782146237183,125.58328167861517,204.57043446237182,131.01003997861517L220.60391146237183,156.50286657861517C222.51961446237183,159.54916557861515,223.95050746237183,161.82559357861516,224.8715584623718,163.65300857861516L221.64483546237182,163.65300857861516C220.81368246237182,162.17999057861516,219.68019846237183,160.36805157861517,218.19240146237183,158.00150857861516L202.15892746237182,132.50868757861517C200.4230264623718,129.74853577861515,199.22050046237183,127.84218417861516,198.19133346237183,126.49623217861516C197.16178446237183,125.14963667861515,196.55217646237182,124.70833667861515,196.14285946237183,124.53381337861516C194.95056846237182,124.02668657861516,193.60047446237184,124.02630917861516,192.40856846237182,124.53381337861516C191.99925146237183,124.70822157861515,191.3904014623718,125.14850437861516,190.35971046237182,126.49623217861516C189.33092646237182,127.84222377861516,188.13180846237182,129.74815997861515,186.39591346237182,132.50868757861517L170.36266426237182,158.00150857861516C168.87478976237182,160.36766557861517,167.74133876237184,162.17999057861516,166.90999936237182,163.65300857861516L163.68706846237183,163.65300857861516C164.15214821237183,162.73006257861516,164.74313226237183,161.69100357861515,165.46525736237183,160.49774357861514L167.95100496237183,156.50286657861517L183.98061146237183,131.01003997861517C187.1800264623718,125.92252317861517,188.88215446237183,123.21870067861516,190.88207546237183,122.13326626861516L191.28608246237184,121.93812108861516Z" fill="url(#master_svg8_203_05991)" fill-opacity="1" style="mix-blend-mode:passthrough"/></g></g></g><g clip-path="url(#master_svg9_310_12613)"><g><g mask="url(#master_svga_310_12617)"><g><path d="M141.495312,5.3416359671875C144.612503,3.6346566071875,148.387501,3.6346566071875,151.504692,5.3416359671875L195.77552,29.5878863671875C199.1125,31.4158553671875,201.18698999999998,34.9180413671875,201.1875,38.7227863671875L201.1875,86.2741853671875C201.1875,90.0799253671875,199.11355,93.5861663671875,195.77552,95.4142913671875L151.504692,119.6554413671875C149.946358,120.5090913671875,148.222397,120.9372113671875,146.5,120.9372113671875C144.777607,120.9372113671875,143.05364600000001,120.5090913671875,141.495312,119.6554413671875L97.2242718,95.4142913671875C93.8865108,93.5861663671875,91.8125,90.0799253671875,91.8125,86.2741853671875L91.8125,38.7227863671875C91.81281230351,34.9180413671875,93.8874483,31.4158553671875,97.2242718,29.5878863671875L141.495312,5.3416359671875Z" fill="url(#master_svgb_192_03054)" fill-opacity="1" style="mix-blend-mode:passthrough"/></g></g><g mask="url(#master_svgd_310_12623)"><g filter="url(#master_svge_310_12622)"><path d="M141.49530818530275,5.342244411401367C144.61249918530274,3.635265051401367,148.38749718530272,3.635265051401367,151.50468818530274,5.342244411401367L195.77551618530273,29.588494811401368C199.11249618530275,31.416463811401368,201.18698618530271,34.918649811401366,201.18749618530273,38.72339481140137L201.18749618530273,86.27479381140137C201.18749618530273,90.08053381140137,199.11354618530274,93.58677481140137,195.77551618530273,95.41489981140137L151.50468818530274,119.65604981140137C149.94635418530274,120.50969981140136,148.22239318530274,120.93781981140137,146.49999618530273,120.93781981140137C144.77760318530272,120.93781981140137,143.05364218530275,120.50969981140136,141.49530818530275,119.65604981140137L97.22426798530273,95.41489981140137C93.88650698530273,93.58677481140137,91.81249618530273,90.08053381140137,91.81249618530273,86.27479381140137L91.81249618530273,38.72339481140137C91.81280848881273,34.918649811401366,93.88744448530274,31.416463811401368,97.22426798530273,29.588494811401368L141.49530818530275,5.342244411401367Z" fill="url(#master_svgf_192_03054)" fill-opacity="1" style="mix-blend-mode:passthrough"/></g></g><g><path d="M150.732315421875,16.6787108C148.096378421875,15.273762229999999,144.903663421875,15.273762229999999,142.267726421875,16.6787108L109.301739721875,34.252148C107.432051241875,35.248813999999996,107.471738011875,37.942202,109.370071521875,38.883347L141.872936421875,54.997929C144.78856242187499,56.443241,148.211479421875,56.443241,151.127105421875,54.997929L183.630226421875,38.883347C185.528152421875,37.942202,185.568252421875,35.248813999999996,183.698455421875,34.252148L150.732315421875,16.6787108Z" fill="url(#master_svgg_203_06028)" fill-opacity="1" style="mix-blend-mode:passthrough"/></g><g><path d="M142.26873751171874,16.6777887484375C144.90415151171874,15.2732574384375,148.09686251171874,15.2732574384375,150.73227651171874,16.6777887484375L183.69635051171875,34.2508086484375C185.56613951171875,35.2475276484375,185.52863351171874,37.9432586484375,183.63019551171874,38.8844036484375L151.12915451171875,54.9979436484375L150.00988051171873,55.4708636484375C147.74113451171874,56.2828406484375,145.25988351171875,56.2828406484375,142.99113051171875,55.4708636484375L141.87186051171875,54.9979436484375L109.37082111171875,38.8844036484375C107.47253984171876,37.9432586484375,107.43498641171875,35.2475276484375,109.30472711171875,34.2508086484375L142.26873751171874,16.6777887484375ZM148.89634351171875,20.1262779484375C147.40884351171874,19.3335173484375,145.59217451171875,19.3335173484375,144.10467551171877,20.1262779484375L113.36863371171874,36.5091416484375L143.60623951171874,51.4983636484375C145.42863451171874,52.4015926484375,147.57238351171875,52.4015926484375,149.39478351171874,51.4983636484375L179.62760151171875,36.5091416484375L148.89634351171875,20.1262779484375Z" fill="url(#master_svgh_203_06035)" fill-opacity="1" style="mix-blend-mode:passthrough"/></g><g><path d="M201.1875,86.273391671875C201.1875,90.07859467187501,199.113022,93.585361671875,195.77552,95.412971671875L151.5046892,119.654121671875C149.9463556,120.507766671875,148.2223954,120.935890671875,146.5,120.935890671875L146.5,68.903596671875C148.1958317,68.903596671875,149.8942711,68.490054671875,151.4338541,67.662454671875L198.28854,42.480420571875C199.688545,41.727345671875,200.647392,40.586254571875,201.1875,39.301513671875L201.1875,86.273391671875Z" fill="url(#master_svgi_192_02962)" fill-opacity="1" style="mix-blend-mode:passthrough"/></g></g></g></g></svg>