<?xml version="1.0" encoding="UTF-8"?>
<svg xmlns="http://www.w3.org/2000/svg" xmlns:xlink="http://www.w3.org/1999/xlink" fill="none" version="1.1" width="127" height="20" viewBox="0 0 127 20"><g><path d="M14.976001,5.3279991L14.976001,6.4159994L10.032001,6.4159994Q8.9280005,8.2559996,8.1280003,9.1199999L10.896001,8.9919996Q11.472,8.2559996,12.240001,7.0239992L13.216001,7.5839996Q11.872001,9.8719997,10.048,11.632Q8.224,13.392,5.7760005,14.784L5.0880003,13.792Q6.6880002,12.912,7.8560004,12.04Q9.0240002,11.167999,9.9680004,10.128L7.6640005,10.24L7.3280005,10.256Q6.8320003,10.288,6.4960003,10.368L6.2080002,9.3279991Q6.4960003,9.2320004,6.6320004,9.1519995Q6.7680001,9.0719995,6.8800001,8.9440002Q7.2480001,8.5599995,7.7680006,7.8399992Q8.2880001,7.1199999,8.7040005,6.4159994L6.0000005,6.4159994L6.0000005,5.3279991L9.8400002,5.3279991Q9.4880009,3.999999,9.2000008,3.263999L10.304001,3.0559998Q10.56,3.7119999,11.024,5.3279991L14.976001,5.3279991ZM5.6000004,12.16Q5.3600001,11.76,4.9520001,11.191999Q4.5440001,10.624,4.1600003,10.191999L4.1600003,17.743999L3.0560002,17.743999L3.0560002,9.8559999Q2.1760001,12.08,1.136,13.648L0.25600001,12.88Q1.008,11.84,1.7600001,10.336Q2.5120001,8.8319998,2.9920001,7.4239998L1.024,7.4239998L1.024,6.2879992L3.0560002,6.2879992L3.0560002,3.3119993L4.1600003,3.3599997L4.1600003,6.2879992L5.8880005,6.2879992L5.8880005,7.4239998L4.1600003,7.4239998L4.1600003,9.4559994L4.5280004,9.1199999Q4.96,9.552,5.5440001,10.223999Q6.1280003,10.896,6.4000001,11.327999L5.6000004,12.16ZM14.144001,10.799999Q13.024,12.656,11.52,14.096Q12.384001,14.656,13.328001,15.384Q14.272,16.112,14.768001,16.608L14.048,17.776001Q13.536,17.152,12.568001,16.327999Q11.6,15.504,10.688001,14.832Q8.96,16.271999,5.9840002,17.792L5.2960005,16.816Q8.1920004,15.44,9.9840002,13.952Q11.776001,12.464,13.264001,10.208L14.144001,10.799999ZM22.816,3.1679993Q23.504,4.0639992,24.512001,5.632Q25.52,7.1999998,26.112,8.3519993L25.056,9.0879993Q24.400002,7.7919998,23.440001,6.2079992Q22.48,4.6239996,21.856001,3.7919998L22.816,3.1679993ZM20.576,6.6559992L21.872,6.7519999L21.872,14.976Q21.872,15.328,22.007999,15.552Q22.144001,15.776,22.576,15.84Q22.960001,15.904,23.792,15.904Q24.816,15.904,25.504002,15.824Q25.968,15.776,26.120001,15.576Q26.271999,15.376,26.336,14.944Q26.431999,14.4,26.472,13.896Q26.512001,13.392,26.512001,13.168L27.68,13.6Q27.68,13.648,27.632,14.176Q27.584,14.704,27.456001,15.504Q27.328001,16.336,26.976002,16.639999Q26.624001,16.944,25.903999,17.024Q25.344002,17.087999,23.984001,17.087999Q22.720001,17.087999,22.032001,17.024Q21.232,16.959999,20.903999,16.496Q20.576,16.032,20.576,15.168L20.576,6.6559992ZM28.431999,7.5199995Q28.912001,8.4319992,29.648001,10.24Q30.384001,12.048,30.800001,13.472L29.6,14.064Q29.184002,12.559999,28.512001,10.76Q27.84,8.9599991,27.375999,7.9839993L28.431999,7.5199995ZM16.464001,14.336Q16.959999,13.024,17.384001,11.12Q17.808001,9.2159996,18,7.7599993L19.232,8.0639992Q18.992001,9.5679998,18.592001,11.44Q18.191999,13.312,17.743999,14.656L16.464001,14.336ZM38.816002,6.6719999L34.192001,6.6719999L34.192001,8.7679996L33.104,8.7679996L33.104,5.7279997L38.816002,5.7279997L38.816002,4.7359991L33.599998,4.7359991L33.599998,3.7919998L45.167999,3.7919998L45.167999,4.7359991L39.936001,4.7359991L39.936001,5.7279997L45.648003,5.7279997L45.648003,8.7679996L44.560001,8.7679996L44.560001,6.6719999L39.936001,6.6719999L39.936001,9.8079996L38.816002,9.8079996L38.816002,6.6719999ZM34.928001,7.408L37.952,7.408L37.952,8.1599998L34.928001,8.1599998L34.928001,7.408ZM40.799999,7.408L43.807999,7.408L43.807999,8.1599998L40.799999,8.1599998L40.799999,7.408ZM37.952,9.632L34.928001,9.632L34.928001,8.8959999L37.952,8.8959999L37.952,9.632ZM43.807999,9.632L40.799999,9.632L40.799999,8.8959999L43.807999,8.8959999L43.807999,9.632ZM46.064003,11.408L39.792,11.408Q39.728001,11.615999,39.327999,12.719999L44.896,12.719999L44.896,15.984Q44.896,16.672001,44.608002,16.983999Q44.32,17.296,43.487999,17.375999L42.496002,17.472L42.144001,16.431999L42.912003,16.368Q43.440002,16.32,43.584,16.200001Q43.728001,16.08,43.728001,15.648L43.728001,13.632L41.487999,13.632L41.487999,17.024L40.431999,17.024L40.431999,13.632L38.288002,13.632L38.288002,17.024L37.248001,17.024L37.248001,13.632L35.024002,13.632L35.024002,17.424L33.872002,17.424L33.872002,12.719999L38.176003,12.719999Q38.416,12.096,38.608002,11.408L32.703999,11.408L32.703999,10.496L46.064003,10.496L46.064003,11.408ZM62.576004,14.944L61.792004,16.08Q59.760002,14.88,58.272003,13.368Q56.784004,11.856,55.792004,9.8559999L55.792004,15.456Q55.792004,16.16,55.600002,16.544001Q55.408005,16.927999,54.936005,17.112Q54.464005,17.296,53.568005,17.344L52.688004,17.392L52.304005,16.176001L53.392002,16.112Q53.952003,16.08,54.192001,15.992Q54.432003,15.904,54.504002,15.712Q54.576004,15.52,54.576004,15.088L54.576004,11.84Q53.296005,12.816,51.728004,13.88Q50.160004,14.944,48.816002,15.712L48.032001,14.64Q49.584003,13.823999,51.392002,12.632Q53.200005,11.44,54.576004,10.384L54.576004,6.8479996L48.752003,6.8479996L48.752003,5.7119999L54.576004,5.7119999L54.576004,3.1039991L55.792004,3.1679993L55.792004,5.7119999L58.944004,5.7119999Q58.592003,5.2479992,58.064003,4.6879997Q57.536003,4.1279993,57.152004,3.7919998L57.952003,3.039999Q58.384003,3.4239998,59.024002,4.079999Q59.664001,4.7359991,59.968002,5.1359997L59.456001,5.7119999L61.744003,5.7119999L61.744003,6.8479996L55.792004,6.8479996L55.792004,7.4559994Q56.512001,9.2639999,57.376003,10.559999Q58.144005,9.9039993,58.968002,9.0240002Q59.792004,8.1439991,60.240005,7.4719992L61.136002,8.2880001Q60.544003,9.039999,59.672005,9.9440002Q58.800003,10.848,58.048004,11.455999Q58.912003,12.512,60.024002,13.368Q61.136002,14.224,62.576004,14.944ZM52.112003,11.296Q51.728004,10.656,50.912003,9.7279997Q50.096004,8.7999992,49.504002,8.2559996L50.272003,7.4879999Q50.832005,7.9679995,51.680004,8.8640003Q52.528004,9.7600002,52.928001,10.336L52.112003,11.296ZM67.008003,6.9919996Q66.576004,6.448,65.768005,5.7439995Q64.960007,5.039999,64.384003,4.6719999L65.072006,3.7759991Q65.616005,4.1279993,66.440002,4.7839994Q67.264008,5.4399996,67.728004,5.9039993L67.008003,6.9919996ZM76.160004,5.2799997L69.152008,5.2799997L69.152008,7.0719995L68.064003,7.0719995L68.064003,4.2079992L77.264008,4.2079992L77.264008,7.0879993L76.160004,7.0879993L76.160004,5.2799997ZM72.048004,7.2479992Q71.488007,7.8399992,70.384003,8.7039995Q69.280006,9.5679998,68.528008,10L67.888,9.039999Q68.624008,8.6399994,69.696007,7.8239994Q70.768005,7.0079994,71.328003,6.3839998L72.048004,7.2479992ZM73.792007,6.4319992Q74.672005,6.9119997,75.776001,7.6239996Q76.880005,8.3359995,77.440002,8.8319998L76.784004,9.8559999Q76.240005,9.2639999,75.168007,8.5359993Q74.096008,7.8079996,73.216003,7.3439999L73.792007,6.4319992ZM66.624001,10.688Q66.176003,10.128,65.328003,9.3839998Q64.480003,8.6399994,63.888004,8.2559996L64.576004,7.3599997Q65.120003,7.6799994,65.968002,8.3839998Q66.816002,9.0879993,67.328003,9.6159992L66.624001,10.688ZM73.584007,11.776Q74.464005,12.927999,75.632004,13.88Q76.800003,14.832,78.384003,15.68L77.632004,16.704Q76.128006,15.808,75.032005,14.832Q73.936005,13.856,73.152008,12.704L73.152008,17.632L72.016006,17.632L72.016006,12.816Q71.200005,14,70.144005,14.927999Q69.088005,15.856,67.488007,16.799999L66.720001,15.792Q68.528008,14.784,69.608002,13.896Q70.688004,13.007999,71.552002,11.776L67.840004,11.776L67.840004,10.719999L72.016006,10.719999L72.016006,8.816L73.152008,8.8479996L73.152008,10.719999L77.568008,10.719999L77.568008,11.776L73.584007,11.776ZM66.528008,11.84L67.040001,12.016Q66.848007,13.072,66.328003,14.76Q65.808006,16.448,65.376007,17.424L64.272003,17.072001Q64.704002,16.143999,65.232002,14.44Q65.760002,12.736,65.952003,11.695999L66.528008,11.84ZM82.304008,5.8239994L82.304008,9.7919998Q82.304008,11.776,82.104004,13.096Q81.904007,14.416,81.520004,15.4Q81.136002,16.384001,80.432007,17.728001L79.328003,17.167999Q80.080002,15.888,80.456001,14.92Q80.832008,13.952,80.992004,12.704Q81.152008,11.455999,81.152008,9.4399996L81.152008,4.7679996L86.976006,4.7679996Q86.592003,3.5679998,86.464005,3.263999L87.648003,3.039999Q87.856003,3.5519991,88.256004,4.7679996L93.440002,4.7679996L93.440002,5.8239994L82.304008,5.8239994ZM90.800003,8.4799995L90.800003,10.784L84.800003,10.784L84.800003,8.4799995L82.704002,8.4799995L82.704002,7.4719992L84.800003,7.4719992L84.800003,6.2719994L85.936005,6.3039999L85.936005,7.4719992L89.648003,7.4719992L89.648003,6.2719994L90.800003,6.3039999L90.800003,7.4719992L93.392006,7.4719992L93.392006,8.4799995L90.800003,8.4799995ZM89.648003,9.7919998L89.648003,8.4799995L85.936005,8.4799995L85.936005,9.7919998L89.648003,9.7919998ZM93.392006,17.472Q91.184006,17.024,89.920006,16.704Q88.656006,16.384001,87.664001,15.936Q85.616005,16.848,82.352005,17.552L81.824005,16.48Q84.592003,16.032,86.480003,15.312Q85.120003,14.464,83.728004,12.832L82.912003,12.832L82.912003,11.823999L91.808006,11.823999L91.808006,12.848Q90.592003,14.384,88.848007,15.344Q89.744003,15.648,90.896004,15.88Q92.048004,16.112,93.824005,16.351999L93.392006,17.472ZM85.088005,12.832Q86.416008,14.16,87.632004,14.816Q89.184006,14.048,90.240005,12.832L85.088005,12.832ZM101.60001,5.4239998L100.41601,7.184L102.11201,7.184L102.11201,16.048Q102.11201,16.544001,101.992,16.784Q101.87201,17.024,101.60001,17.128Q101.328,17.232,100.73601,17.312L100.24001,17.375999L99.936005,16.4L100.43201,16.336Q100.86401,16.288,100.992,16.136Q101.12,15.984,101.12,15.616L101.12,13.728L99.76001,13.728L99.76001,16.672001L98.768005,16.672001L98.768005,13.728L97.376007,13.728Q97.264008,14.927999,97.008003,15.792Q96.752007,16.656,96.256004,17.615999L95.248009,17.152Q95.76001,16.176001,96.008003,15.432Q96.256004,14.688,96.352005,13.736Q96.448006,12.784,96.448006,11.184L96.448006,7.6639996L95.776009,8.3839998L95.008003,7.632Q96.016006,6.6559992,96.856003,5.4799995Q97.696007,4.3039999,98.240005,3.039999L99.328003,3.2959995Q99.056007,3.9039993,98.720009,4.5279999L101.60001,4.5279999L101.60001,5.4239998ZM102.256,8.3999996Q102.97601,7.8719997,103.368,7.4559994Q103.76001,7.04,103.952,6.5999994Q104.144,6.1599998,104.28801,5.5199995L104.384,5.0239992L102.672,5.0239992L102.672,4.0479994L108.84801,4.0479994L108.64001,6.8479996Q108.59201,7.4719992,108.424,7.7999992Q108.256,8.1280003,107.86401,8.2799997Q107.47201,8.4319992,106.70401,8.4960003L106.16,8.5439997L105.80801,7.5359993L106.52801,7.4719992Q106.992,7.4239998,107.19201,7.3439999Q107.39201,7.2639999,107.464,7.0879993Q107.53601,6.9119997,107.56801,6.5279999Q107.616,6.2079992,107.65601,5.7679996Q107.69601,5.3279991,107.71201,5.0239992L105.45601,5.0239992Q105.424,5.3919992,105.328,5.8399992Q105.13601,6.8479996,104.60001,7.5999994Q104.064,8.3519993,102.96001,9.1999998L102.256,8.3999996ZM98.128006,5.5039997Q97.504005,6.4319992,96.864006,7.184L99.200005,7.184L100.30401,5.5039997L98.128006,5.5039997ZM98.768005,9.9519997L98.768005,8.1919994L97.440002,8.1919994L97.440002,9.9519997L98.768005,9.9519997ZM99.76001,9.9519997L101.12,9.9519997L101.12,8.1919994L99.76001,8.1919994L99.76001,9.9519997ZM109.68001,13.44L109.68001,14.48L106.75201,14.48L106.75201,17.6L105.69601,17.6L105.69601,14.48L102.496,14.48L102.496,13.44L105.69601,13.44L105.69601,11.504L104.01601,11.504Q103.68001,12.464,103.36001,13.168L102.41601,12.816Q102.8,12.032,103.144,10.992Q103.48801,9.9519997,103.66401,9.0719995L104.65601,9.2320004Q104.59201,9.5679998,104.35201,10.448L105.69601,10.448L105.69601,8.8479996L106.75201,8.8799992L106.75201,10.448L109.13601,10.448L109.13601,11.504L106.75201,11.504L106.75201,13.44L109.68001,13.44ZM98.768005,12.704L98.768005,10.976L97.440002,10.976L97.440002,11.632Q97.440002,12.368,97.424004,12.704L98.768005,12.704ZM99.76001,10.976L99.76001,12.704L101.12,12.704L101.12,10.976L99.76001,10.976ZM116.54401,12.08Q116.256,11.535999,115.75201,10.808Q115.24801,10.08,114.83201,9.6159992L114.83201,17.584L113.69601,17.584L113.69601,9.8719997Q112.83201,11.808,111.66401,13.568L110.76801,12.88Q111.56801,11.743999,112.368,10.256Q113.16801,8.7679996,113.64801,7.3599997L111.56801,7.3599997L111.56801,6.1919994L113.69601,6.1919994L113.69601,3.2159996L114.83201,3.2479992L114.83201,6.1919994L116.97601,6.1919994L116.97601,7.3599997L114.83201,7.3599997L114.83201,9.0879993L115.32801,8.6239996Q115.744,9.0559998,116.39201,9.8879995Q117.04001,10.719999,117.34401,11.232L116.54401,12.08ZM125.34401,8.8479996L125.34401,9.9839993L122.89601,9.9839993L122.89601,17.504L121.66401,17.504L121.66401,9.9839993L118.84801,9.9839993Q118.83201,11.952,118.64001,13.2Q118.44801,14.448,117.98401,15.456Q117.52,16.464001,116.60801,17.664L115.53601,17.024Q116.48001,15.824,116.936,14.872Q117.39201,13.92,117.55201,12.712Q117.71201,11.504,117.71201,9.3920002L117.71201,4.6559992Q121.04001,4.4159994,124.28801,3.6479998L124.59201,4.8319998Q123.24801,5.1519995,121.71201,5.3999996Q120.17601,5.6479998,118.84801,5.7759991L118.84801,8.8479996L125.34401,8.8479996Z" fill="#FFFFFF" fill-opacity="0.5"/></g></svg>