<?xml version="1.0" encoding="UTF-8"?>
<svg xmlns="http://www.w3.org/2000/svg" xmlns:xlink="http://www.w3.org/1999/xlink" fill="none" version="1.1" width="145" height="52" viewBox="0 0 145 52"><g><path d="M1.4399999,26.664001L1.8,27.852001L33.66,27.852001C34.236,27.852001,34.667999,27.708,34.775997,27.276001C32.939999,25.548,29.915998,23.028,29.915998,23.028L27.251999,26.664001L1.4399999,26.664001ZM64.871994,16.476002L64.871994,20.256001L62.387997,20.256001L62.387997,16.476002L64.871994,16.476002ZM64.871994,25.188002L62.387997,25.188002L62.387997,21.300001L64.871994,21.300001L64.871994,25.188002ZM56.483997,16.476002L59.579998,16.476002L59.579998,20.256001L54.467999,20.256001L54.755997,21.300001L59.579998,21.300001L59.579998,25.188002L56.411995,25.188002L56.736,26.196001L59.579998,26.196001L59.579998,30.048L56.267998,30.048L56.556,31.091999L59.579998,31.091999L59.579998,34.692001L55.007996,34.692001L55.295998,35.736L59.579998,35.736L59.579998,40.416L60.119995,40.416C61.163998,40.416,62.387997,39.731998,62.387997,39.372002L62.387997,35.736L68.759995,35.736C69.227997,35.736,69.587997,35.556,69.695999,35.16C68.580002,34.007999,66.707993,32.424,66.707993,32.424L65.087997,34.692001L62.387997,34.692001L62.387997,31.091999L67.823997,31.091999C68.327995,31.091999,68.687996,30.912001,68.795998,30.516001C67.715996,29.436001,65.951996,27.924,65.951996,27.924L64.403999,30.048L62.387997,30.048L62.387997,26.196001L64.871994,26.196001L64.871994,27.348L65.304001,27.348C66.167999,27.348,67.463997,26.736,67.5,26.484001L67.5,21.300001L70.056,21.300001C70.524002,21.300001,70.847992,21.120001,70.955994,20.724001C70.199997,19.68,68.832001,18.240002,68.832001,18.240002L67.643997,20.256001L67.5,20.256001L67.5,16.764002C68.075996,16.692001,68.543999,16.440001,68.723999,16.188002L65.879997,13.992001L64.547997,15.432001L62.387997,15.432001L62.387997,13.092001C63.287998,12.948002,63.539997,12.624001,63.612,12.120001L59.579998,11.688002L59.579998,15.432001L56.159996,15.432001L56.483997,16.476002ZM64.764,41.099998C59.363998,41.099998,55.584,40.380001,52.883995,37.716C54.395996,34.692001,55.079998,31.236,55.475998,27.672001C56.195999,27.6,56.556,27.456001,56.771996,27.132L53.891998,24.648001L52.307999,26.232L51.047997,26.232C52.127998,23.532001,53.603996,19.464001,54.360001,17.052002C55.079998,16.980001,55.691998,16.800001,56.015999,16.476002L53.063995,13.848001L51.587997,15.288002L48.059998,15.288002L48.383999,16.332001L51.767998,16.332001C50.975998,19.032001,49.5,23.244001,48.419998,25.800001C47.987999,25.980001,47.519997,26.232,47.231998,26.448002L49.823997,28.356001L50.903999,27.276001L52.596001,27.276001C52.416,30.228001,52.019997,33.071999,51.227997,35.664001C50.327999,34.260002,49.571999,32.532001,48.923996,30.372002L48.743996,30.444C48.851997,30.372002,48.887997,30.264,48.923996,30.120001C48.023998,29.112,46.403999,27.743999,46.403999,27.743999L44.963997,29.652L44.243999,29.652L44.243999,23.856001L47.375999,23.856001C47.879997,23.856001,48.239998,23.676001,48.311996,23.280001C47.303997,22.200001,45.503998,20.724001,45.503998,20.724001L43.991997,22.812L39.275997,22.812C40.32,21.192001,41.327999,19.284,42.155998,17.484001L47.951996,17.484001C48.419998,17.484001,48.743996,17.304001,48.815998,16.908001C47.699997,15.792002,45.899998,14.424002,45.899998,14.424002L44.315998,16.440001L42.623997,16.440001C43.019997,15.396002,43.416,14.388,43.703999,13.452002C44.567997,13.380001,44.891998,13.092001,45,12.660002L40.571999,11.472002C40.103996,15.072001,38.591999,21.588001,37.079998,24.972L37.584,25.224001C38.087997,24.612001,38.591999,23.928001,39.023998,23.208L39.203999,23.856001L41.363998,23.856001L41.363998,29.652L37.368,29.652L37.655998,30.695999L41.363998,30.695999L41.363998,39.192001C41.363998,39.84,41.147999,40.091999,39.995998,41.063999L42.947998,43.835999C43.163998,43.619999,43.379997,43.188,43.523998,42.683998C45.792,40.091999,47.771999,37.535999,48.635998,36.312L48.419998,35.916C46.98,36.852001,45.539997,37.788002,44.243999,38.543999L44.243999,30.695999L48.059998,30.695999C48.239998,30.695999,48.383999,30.66,48.491997,30.624001C49.067997,33.324001,49.751999,35.52,50.651997,37.32C49.535999,40.091999,47.843998,42.540001,45.18,44.447998L45.467999,44.952C48.383999,43.439999,50.399998,41.568001,51.875999,39.372002C54.575996,43.152,58.607998,44.268002,64.511993,44.268002L69.623993,44.268002C69.659996,42.936001,70.199997,41.784,71.315994,41.532001L71.315994,41.099998L64.764,41.099998ZM100.43999,42.360001L91.871994,42.360001L91.871994,31.667999L102.70799,31.667999C103.212,31.667999,103.60799,31.488001,103.67999,31.091999C102.132,29.76,99.612,27.888,99.612,27.888L97.379997,30.624001L91.871994,30.624001L91.871994,21.480001L103.85999,21.480001C104.39999,21.480001,104.75999,21.300001,104.868,20.904001C103.24799,19.500002,100.8,17.736002,100.8,17.736002L98.603996,20.436001L91.871994,20.436001L91.871994,13.308001C92.807999,13.164001,93.095993,12.804001,93.167999,12.264002L88.163994,11.760002L88.163994,20.436001L81.612,20.436001C82.511993,18.780001,83.339996,17.016001,84.059998,15.144001C84.888,15.18,85.32,14.856001,85.463997,14.424002L80.388,12.876001C78.947998,19.356001,76.031998,25.728001,73.115997,29.76L73.584,30.084C76.391998,27.924,78.911995,25.044001,81.035995,21.480001L88.163994,21.480001L88.163994,30.624001L77.579994,30.624001L77.867996,31.667999L88.163994,31.667999L88.163994,42.360001L73.403999,42.360001L73.727997,43.403999L105.91199,43.403999C106.452,43.403999,106.812,43.223999,106.92,42.827999C105.336,41.424,102.744,39.48,102.744,39.48L100.43999,42.360001ZM132.37199,12.840002C133.92,13.740002,135.79199,15.468,136.44,16.980001C139.57199,18.456001,141.12,12.480001,132.65999,12.516001L132.37199,12.840002ZM142.56,35.232002L142.12799,35.124001C141.552,36.672001,140.724,38.543999,140.18399,39.408001C139.82399,40.091999,139.57199,40.091999,138.95999,39.588001C137.15999,38.363998,135.72,36.779999,134.56799,34.944C136.87199,31.92,138.49199,28.608002,139.644,25.332001C140.616,25.368,140.94,25.116001,141.084,24.684L136.25999,23.136002C135.57599,26.052002,134.496,29.004002,132.98399,31.848C131.57999,28.356001,130.86,24.252001,130.536,19.968L141.84,19.968C142.37999,19.968,142.73999,19.788,142.84799,19.392C141.444,18.168001,139.06799,16.332001,139.06799,16.332001L136.98,18.960001L130.46399,18.960001C130.35599,17.052002,130.31999,15.144001,130.35599,13.200001C131.256,13.056002,131.54399,12.624001,131.616,12.156002L126.89999,11.688002C126.89999,14.172001,126.97199,16.620001,127.15199,18.960001L116.92799,18.960001L112.96799,17.448002L112.96799,26.700001C112.96799,32.784,112.60799,39.515999,109.116,44.880001L109.51199,45.239998C115.884,40.200001,116.38799,32.532001,116.38799,26.844002L121.78799,26.844002C121.644,32.784,121.284,35.664001,120.63599,36.276001C120.42,36.528,120.132,36.599998,119.628,36.599998C119.01599,36.599998,117.396,36.492001,116.49599,36.383999L116.45999,36.959999C117.504,37.175999,118.368,37.5,118.76399,37.968002C119.196,38.436001,119.30399,39.264,119.30399,40.127998C120.78,40.127998,121.96799,39.768002,122.868,39.048C124.308,37.824001,124.84799,34.799999,125.02799,27.312C125.74799,27.204,126.17999,27.024,126.396,26.736L123.19199,24.072001L121.464,25.800001L116.38799,25.800001L116.38799,19.968L127.224,19.968C127.69199,25.692001,128.772,30.912001,130.93199,35.268002C128.448,38.832001,125.172,42.035999,120.924,44.375999L121.212,44.807999C125.81999,43.080002,129.45599,40.560001,132.26399,37.644001C133.56,39.624001,135.144,41.388,137.052,42.863998C138.74399,44.231998,141.444,45.456001,142.70399,44.124001C143.172,43.619999,143.028,42.792,141.80399,40.992001L142.56,35.232002Z" fill="#FFFFFF" fill-opacity="1"/></g></svg>